<svg width="1920" height="1560" viewBox="0 0 1920 1560" fill="none" xmlns="http://www.w3.org/2000/svg">
<g style="mix-blend-mode:screen" opacity="0.06" clip-path="url(#clip0_117_20278)">
<path d="M1968 1096.86V331.579C1832.03 372.99 1731.51 530.48 1733.46 717.316C1735.09 901.218 1834.63 1054.47 1968 1096.86Z" fill="url(#paint0_radial_117_20278)"/>
<path d="M1863.91 358.969H1967.02V357.339H1864.56L1720.78 213.217L1719.8 214.522L1863.91 358.969Z" fill="#969696"/>
<path d="M1720.45 220.391C1723.86 220.391 1726.63 217.617 1726.63 214.195C1726.63 210.774 1723.86 208 1720.45 208C1717.04 208 1714.27 210.774 1714.27 214.195C1714.27 217.617 1717.04 220.391 1720.45 220.391Z" fill="#969696"/>
<path d="M1635.22 1249.78L1727.28 1157.51H1911.07L1967.02 1101.1V1098.81L1910.42 1155.88H1726.63L1634.57 1248.15H1468.35V1249.78H1635.22Z" fill="#969696"/>
<path d="M1468.67 1242.61C1465.42 1242.61 1462.49 1245.22 1462.49 1248.81C1462.49 1252.07 1465.1 1255 1468.67 1255C1471.93 1255 1474.85 1252.39 1474.85 1248.81C1474.85 1245.54 1471.93 1242.61 1468.67 1242.61Z" fill="#969696"/>
<path d="M1851.87 461.354L1898.39 414.726H1967.02V413.096H1897.74L1851.22 459.723H1499.58V461.354H1851.87Z" fill="#969696"/>
<path d="M1499.9 466.571C1503.32 466.571 1506.08 463.797 1506.08 460.376C1506.08 456.954 1503.32 454.18 1499.9 454.18C1496.49 454.18 1493.72 456.954 1493.72 460.376C1493.72 463.797 1496.49 466.571 1499.9 466.571Z" fill="#969696"/>
<path d="M1861.95 887.197L1932.54 957.953H1967.02V956.323H1933.19L1862.6 885.567H1650.51V887.197H1861.95Z" fill="#969696"/>
<path d="M1650.84 880.349C1647.59 880.349 1644.66 882.958 1644.66 886.545C1644.66 889.805 1647.26 892.74 1650.84 892.74C1654.09 892.74 1657.02 890.131 1657.02 886.545C1657.02 882.958 1654.42 880.349 1650.84 880.349Z" fill="#969696"/>
<path d="M1862.6 518.415L1929.94 450.593H1967.02V448.963H1929.29L1861.95 516.785H1597.17V518.415H1862.6Z" fill="#969696"/>
<path d="M1597.49 523.632C1594.24 523.632 1591.31 521.024 1591.31 517.437C1591.31 514.176 1593.91 511.242 1597.49 511.242C1600.74 511.242 1603.67 513.85 1603.67 517.437C1603.67 521.024 1601.07 523.632 1597.49 523.632Z" fill="#969696"/>
<path d="M1618.31 879.697L1687.6 810.571H1967.02V808.941H1686.95L1617.33 878.719L1618.31 879.697Z" fill="#969696"/>
<path d="M1613.76 874.48C1611.48 876.763 1611.48 880.675 1613.76 883.284C1616.03 885.566 1619.94 885.566 1622.54 883.284C1624.82 881.001 1624.82 877.089 1622.54 874.48C1619.94 872.198 1616.03 872.198 1613.76 874.48Z" fill="#969696"/>
<path d="M1535.68 574.825H1834.3L1906.19 502.438H1967.02V500.808H1905.54L1833.65 573.195H1536.34L1448.51 485.157L1447.2 486.135L1535.68 574.825Z" fill="#969696"/>
<path d="M1452.41 481.57C1450.13 479.288 1446.23 479.288 1443.63 481.57C1441.35 483.852 1441.35 487.765 1443.63 490.374C1445.9 492.656 1449.81 492.656 1452.41 490.374C1454.69 487.765 1454.69 483.852 1452.41 481.57Z" fill="#969696"/>
<path d="M1802.1 642.321L1911.4 532.763H1967.02V531.132H1910.75L1800.8 641.343L1802.1 642.321Z" fill="#969696"/>
<path d="M1797.55 637.43C1795.27 639.713 1795.27 643.625 1797.55 646.234C1799.82 648.516 1803.73 648.516 1806.33 646.234C1808.61 643.951 1808.61 640.039 1806.33 637.43C1803.73 634.821 1799.82 634.821 1797.55 637.43Z" fill="#969696"/>
<path d="M1942.95 748.619L1967.02 773.074V770.791L1943.6 746.988H1521.05V748.619H1942.95Z" fill="#969696"/>
<path d="M1521.37 741.771C1518.12 741.771 1515.19 744.38 1515.19 747.966C1515.19 751.553 1517.79 754.161 1521.37 754.161C1524.62 754.161 1527.55 751.553 1527.55 747.966C1527.55 744.38 1524.95 741.771 1521.37 741.771Z" fill="#969696"/>
<path d="M1967.02 585.585H1909.12V587.215H1967.02V585.585Z" fill="#969696"/>
<path d="M1909.45 580.368C1906.19 580.368 1903.27 582.976 1903.27 586.563C1903.27 589.824 1905.87 592.759 1909.45 592.759C1912.7 592.759 1915.63 590.15 1915.63 586.563C1915.63 583.303 1912.7 580.368 1909.45 580.368Z" fill="#969696"/>
<path d="M1967.02 617.539H1893.18V619.17H1967.02V617.539Z" fill="#969696"/>
<path d="M1893.51 624.387C1896.92 624.387 1899.69 621.613 1899.69 618.192C1899.69 614.77 1896.92 611.996 1893.51 611.996C1890.09 611.996 1887.33 614.77 1887.33 618.192C1887.33 621.613 1890.09 624.387 1893.51 624.387Z" fill="#969696"/>
<path d="M1596.84 905.782H1526.58V907.413H1596.84V905.782Z" fill="#969696"/>
<path d="M1596.51 900.24C1599.77 900.24 1602.7 902.848 1602.7 906.435C1602.7 909.695 1600.09 912.63 1596.51 912.63C1593.26 912.63 1590.33 910.021 1590.33 906.435C1590.33 903.174 1592.94 900.24 1596.51 900.24Z" fill="#969696"/>
<path d="M1526.9 900.24C1523.65 900.24 1520.72 902.848 1520.72 906.435C1520.72 909.695 1523.32 912.63 1526.9 912.63C1530.15 912.63 1533.08 910.021 1533.08 906.435C1532.76 903.174 1530.15 900.24 1526.9 900.24Z" fill="#969696"/>
<path d="M1939.05 845.134L1967.02 873.176V870.893L1939.7 843.504H1711.34V845.134H1939.05Z" fill="#969696"/>
<path d="M1711.67 850.351C1715.08 850.351 1717.85 847.578 1717.85 844.156C1717.85 840.734 1715.08 837.961 1711.67 837.961C1708.26 837.961 1705.49 840.734 1705.49 844.156C1705.49 847.578 1708.26 850.351 1711.67 850.351Z" fill="#969696"/>
<path d="M1635.88 1208.05L1753.63 1090.01H1888.3L1965.07 1013.38H1967.02V1011.75H1964.42L1887.65 1088.38H1752.98L1635.22 1206.42H1481.69V1208.05H1635.88Z" fill="#969696"/>
<path d="M1481.69 1200.87C1478.43 1200.87 1475.51 1203.48 1475.51 1207.07C1475.51 1210.33 1478.11 1213.26 1481.69 1213.26C1485.26 1213.26 1487.87 1210.66 1487.87 1207.07C1487.87 1203.81 1485.26 1200.87 1481.69 1200.87Z" fill="#969696"/>
<path d="M1475.18 1027.41L1565.94 936.433H1837.56L1890.25 989.256H1967.02V987.625H1890.91L1838.21 934.802H1565.29L1473.88 1026.43L1475.18 1027.41Z" fill="#969696"/>
<path d="M1470.3 1022.19C1468.02 1024.47 1468.02 1028.38 1470.3 1030.99C1472.58 1033.27 1476.48 1033.27 1479.08 1030.99C1481.36 1028.71 1481.36 1024.8 1479.08 1022.19C1476.81 1019.91 1472.9 1019.91 1470.3 1022.19Z" fill="#969696"/>
<path d="M1721.1 1030.01H1876.92V1031.64H1721.75L1626.77 1127.18H1499.25L1454.04 1082.18L1455.34 1080.88L1499.9 1125.55H1626.12L1721.1 1030.01Z" fill="#969696"/>
<path d="M1876.59 1037.19C1880.01 1037.19 1882.77 1034.41 1882.77 1030.99C1882.77 1027.57 1880.01 1024.8 1876.59 1024.8C1873.18 1024.8 1870.41 1027.57 1870.41 1030.99C1870.41 1034.41 1873.18 1037.19 1876.59 1037.19Z" fill="#969696"/>
<path d="M1459.24 1077.29C1456.96 1075.01 1453.06 1075.01 1450.46 1077.29C1448.18 1079.58 1448.18 1083.49 1450.46 1086.1C1452.73 1088.38 1456.64 1088.38 1459.24 1086.1C1461.52 1083.49 1461.52 1079.9 1459.24 1077.29Z" fill="#969696"/>
<path d="M1662.87 990.56H1823.89V992.19H1663.85L1590.98 1064.9H1526.58V1063.27H1590.33L1662.87 990.56Z" fill="#969696"/>
<path d="M1823.57 985.017C1826.82 985.017 1829.75 987.626 1829.75 991.212C1829.75 994.473 1827.15 997.408 1823.57 997.408C1819.99 997.408 1817.39 994.799 1817.39 991.212C1817.71 987.952 1820.32 985.017 1823.57 985.017Z" fill="#969696"/>
<path d="M1526.9 1058.06C1523.65 1058.06 1520.72 1060.66 1520.72 1064.25C1520.72 1067.51 1523.32 1070.45 1526.9 1070.45C1530.15 1070.45 1533.08 1067.84 1533.08 1064.25C1532.76 1060.66 1530.15 1058.06 1526.9 1058.06Z" fill="#969696"/>
<path d="M1575.7 789.051H1884.72V790.682H1576.35L1459.24 908.392L1458.26 907.087L1575.7 789.051Z" fill="#969696"/>
<path d="M1884.4 783.834C1887.65 783.834 1890.58 786.442 1890.58 790.029C1890.58 793.29 1887.98 796.224 1884.4 796.224C1881.15 796.224 1878.22 793.616 1878.22 790.029C1878.54 786.442 1881.15 783.834 1884.4 783.834Z" fill="#969696"/>
<path d="M1454.69 903.174C1452.41 905.457 1452.41 909.369 1454.69 911.978C1456.96 914.26 1460.87 914.26 1463.47 911.978C1465.75 909.696 1465.75 905.783 1463.47 903.174C1460.87 900.566 1456.96 900.566 1454.69 903.174Z" fill="#969696"/>
<path d="M1943.93 710.469L1967.02 733.946V731.663L1944.58 708.839H1494.7V710.469H1943.93Z" fill="#969696"/>
<path d="M1495.02 716.012C1498.44 716.012 1501.2 713.238 1501.2 709.817C1501.2 706.395 1498.44 703.621 1495.02 703.621C1491.61 703.621 1488.84 706.395 1488.84 709.817C1488.84 713.238 1491.61 716.012 1495.02 716.012Z" fill="#969696"/>
<path d="M1940.68 671.34L1967.02 697.752V695.143L1941.65 669.71H1470.95V671.34H1940.68Z" fill="#969696"/>
<path d="M1471.28 676.558C1474.69 676.558 1477.46 673.784 1477.46 670.362C1477.46 666.941 1474.69 664.167 1471.28 664.167C1467.86 664.167 1465.1 666.941 1465.1 670.362C1465.1 673.784 1467.86 676.558 1471.28 676.558Z" fill="#969696"/>
<path d="M1824.22 393.532H1967.02V391.901H1824.87L1698.33 265.062L1697.36 266.04L1824.22 393.532Z" fill="#969696"/>
<path d="M1698.01 271.909C1701.42 271.909 1704.19 269.135 1704.19 265.714C1704.19 262.292 1701.42 259.519 1698.01 259.519C1694.59 259.519 1691.83 262.292 1691.83 265.714C1691.83 269.135 1694.59 271.909 1698.01 271.909Z" fill="#969696"/>
<path d="M1461.19 311.689H1686.95L1768.92 393.858L1767.62 394.836L1686.3 313.32H1461.19V311.689Z" fill="#969696"/>
<path d="M1772.5 389.946C1774.78 392.228 1774.78 396.141 1772.5 398.749C1770.22 401.032 1766.32 401.032 1763.72 398.749C1761.44 396.467 1761.44 392.554 1763.72 389.946C1765.99 387.337 1769.9 387.337 1772.5 389.946Z" fill="#969696"/>
<path d="M1461.19 318.537C1464.61 318.537 1467.37 315.763 1467.37 312.342C1467.37 308.92 1464.61 306.146 1461.19 306.146C1457.78 306.146 1455.01 308.92 1455.01 312.342C1455.01 315.763 1457.78 318.537 1461.19 318.537Z" fill="#969696"/>
</g>
<g style="mix-blend-mode:screen" opacity="0.06" clip-path="url(#clip1_117_20278)">
<path d="M-47.9999 1096.86V331.579C87.9729 372.99 188.489 530.48 186.537 717.316C184.91 901.218 85.3705 1054.47 -47.9999 1096.86Z" fill="url(#paint1_radial_117_20278)"/>
<path d="M56.0941 358.969H-47.024V357.339H55.4435L199.223 213.217L200.199 214.522L56.0941 358.969Z" fill="#969696"/>
<path d="M199.549 220.391C196.135 220.391 193.368 217.617 193.368 214.195C193.368 210.774 196.135 208 199.549 208C202.962 208 205.729 210.774 205.729 214.195C205.729 217.617 202.962 220.391 199.549 220.391Z" fill="#969696"/>
<path d="M284.776 1249.78L192.717 1157.51H8.92647L-47.024 1101.1V1098.81L9.57705 1155.88H193.368L285.426 1248.15H451.651V1249.78H284.776Z" fill="#969696"/>
<path d="M451.326 1242.61C454.579 1242.61 457.507 1245.22 457.507 1248.81C457.507 1252.07 454.904 1255 451.326 1255C448.073 1255 445.145 1252.39 445.145 1248.81C445.145 1245.54 448.073 1242.61 451.326 1242.61Z" fill="#969696"/>
<path d="M68.1299 461.354L21.6129 414.726H-47.0241V413.096H22.2635L68.7805 459.723H420.423V461.354H68.1299Z" fill="#969696"/>
<path d="M420.098 466.571C416.684 466.571 413.917 463.797 413.917 460.376C413.917 456.954 416.684 454.18 420.098 454.18C423.511 454.18 426.278 456.954 426.278 460.376C426.278 463.797 423.511 466.571 420.098 466.571Z" fill="#969696"/>
<path d="M58.0458 887.197L-12.5429 957.953H-47.0241V956.323H-13.1935L57.3952 885.567H269.487V887.197H58.0458Z" fill="#969696"/>
<path d="M269.161 880.349C272.414 880.349 275.342 882.958 275.342 886.545C275.342 889.805 272.74 892.74 269.161 892.74C265.908 892.74 262.981 890.131 262.981 886.545C262.981 882.958 265.583 880.349 269.161 880.349Z" fill="#969696"/>
<path d="M57.3952 518.415L-9.94057 450.593H-47.024V448.963H-9.29L58.0458 516.785H322.835V518.415H57.3952Z" fill="#969696"/>
<path d="M322.51 523.632C325.763 523.632 328.69 521.024 328.69 517.437C328.69 514.176 326.088 511.242 322.51 511.242C319.257 511.242 316.329 513.85 316.329 517.437C316.329 521.024 318.931 523.632 322.51 523.632Z" fill="#969696"/>
<path d="M301.691 879.697L232.403 810.571H-47.024V808.941H233.054L302.667 878.719L301.691 879.697Z" fill="#969696"/>
<path d="M306.245 874.48C308.522 876.763 308.522 880.675 306.245 883.284C303.968 885.566 300.064 885.566 297.462 883.284C295.185 881.001 295.185 877.089 297.462 874.48C300.064 872.198 303.968 872.198 306.245 874.48Z" fill="#969696"/>
<path d="M384.315 574.825H85.6958L13.8059 502.438H-47.024V500.808H14.4565L86.3464 573.195H383.665L471.494 485.157L472.795 486.135L384.315 574.825Z" fill="#969696"/>
<path d="M467.591 481.57C469.868 479.288 473.771 479.288 476.374 481.57C478.651 483.852 478.651 487.765 476.374 490.374C474.097 492.656 470.193 492.656 467.591 490.374C465.314 487.765 465.314 483.852 467.591 481.57Z" fill="#969696"/>
<path d="M117.9 642.321L8.60114 532.763H-47.024V531.132H9.25172L119.201 641.343L117.9 642.321Z" fill="#969696"/>
<path d="M122.454 637.43C124.731 639.713 124.731 643.625 122.454 646.234C120.177 648.516 116.273 648.516 113.671 646.234C111.394 643.951 111.394 640.039 113.671 637.43C116.273 634.821 120.177 634.821 122.454 637.43Z" fill="#969696"/>
<path d="M-22.9524 748.619L-47.0241 773.074V770.791L-23.6029 746.988H398.954V748.619H-22.9524Z" fill="#969696"/>
<path d="M398.628 741.771C401.881 741.771 404.809 744.38 404.809 747.966C404.809 751.553 402.207 754.161 398.628 754.161C395.375 754.161 392.448 751.553 392.448 747.966C392.448 744.38 395.05 741.771 398.628 741.771Z" fill="#969696"/>
<path d="M-47.024 585.585H10.8783V587.215H-47.024V585.585Z" fill="#969696"/>
<path d="M10.553 580.368C13.8059 580.368 16.7335 582.976 16.7335 586.563C16.7335 589.824 14.1312 592.759 10.553 592.759C7.30004 592.759 4.37238 590.15 4.37238 586.563C4.37238 583.303 7.30004 580.368 10.553 580.368Z" fill="#969696"/>
<path d="M-47.024 617.539H26.8177V619.17H-47.024V617.539Z" fill="#969696"/>
<path d="M26.4923 624.387C23.0789 624.387 20.3118 621.613 20.3118 618.192C20.3118 614.77 23.0789 611.996 26.4923 611.996C29.9058 611.996 32.673 614.77 32.673 618.192C32.673 621.613 29.9058 624.387 26.4923 624.387Z" fill="#969696"/>
<path d="M323.16 905.782H393.424V907.413H323.16V905.782Z" fill="#969696"/>
<path d="M323.486 900.24C320.233 900.24 317.305 902.848 317.305 906.435C317.305 909.695 319.907 912.63 323.486 912.63C326.738 912.63 329.666 910.021 329.666 906.435C329.666 903.174 327.064 900.24 323.486 900.24Z" fill="#969696"/>
<path d="M393.098 900.24C396.351 900.24 399.279 902.848 399.279 906.435C399.279 909.695 396.677 912.63 393.098 912.63C389.846 912.63 386.918 910.021 386.918 906.435C387.243 903.174 389.846 900.24 393.098 900.24Z" fill="#969696"/>
<path d="M-19.0489 845.134L-47.0241 873.176V870.893L-19.6994 843.504H208.657V845.134H-19.0489Z" fill="#969696"/>
<path d="M208.331 850.351C204.918 850.351 202.151 847.578 202.151 844.156C202.151 840.734 204.918 837.961 208.331 837.961C211.745 837.961 214.512 840.734 214.512 844.156C214.512 847.578 211.745 850.351 208.331 850.351Z" fill="#969696"/>
<path d="M284.125 1208.05L166.369 1090.01H31.697L-45.0723 1013.38H-47.024V1011.75H-44.4217L32.3476 1088.38H167.019L284.776 1206.42H438.314V1208.05H284.125Z" fill="#969696"/>
<path d="M438.314 1200.87C441.567 1200.87 444.495 1203.48 444.495 1207.07C444.495 1210.33 441.892 1213.26 438.314 1213.26C434.736 1213.26 432.134 1210.66 432.134 1207.07C432.134 1203.81 434.736 1200.87 438.314 1200.87Z" fill="#969696"/>
<path d="M444.82 1027.41L354.063 936.433H82.4428L29.7452 989.256H-47.0241V987.625H29.0946L81.7922 934.802H354.714L446.121 1026.43L444.82 1027.41Z" fill="#969696"/>
<path d="M449.699 1022.19C451.977 1024.47 451.977 1028.38 449.699 1030.99C447.422 1033.27 443.519 1033.27 440.917 1030.99C438.639 1028.71 438.639 1024.8 440.917 1022.19C443.194 1019.91 447.097 1019.91 449.699 1022.19Z" fill="#969696"/>
<path d="M198.898 1030.01H43.0824V1031.64H198.247L293.233 1127.18H420.748L465.964 1082.18L464.663 1080.88L420.098 1125.55H293.884L198.898 1030.01Z" fill="#969696"/>
<path d="M43.4076 1037.19C39.9941 1037.19 37.227 1034.41 37.227 1030.99C37.227 1027.57 39.9941 1024.8 43.4076 1024.8C46.821 1024.8 49.5882 1027.57 49.5882 1030.99C49.5882 1034.41 46.821 1037.19 43.4076 1037.19Z" fill="#969696"/>
<path d="M460.76 1077.29C463.037 1075.01 466.94 1075.01 469.542 1077.29C471.82 1079.58 471.82 1083.49 469.542 1086.1C467.265 1088.38 463.362 1088.38 460.76 1086.1C458.483 1083.49 458.483 1079.9 460.76 1077.29Z" fill="#969696"/>
<path d="M257.126 990.56H96.1053V992.19H256.15L329.016 1064.9H393.424V1063.27H329.666L257.126 990.56Z" fill="#969696"/>
<path d="M96.4305 985.017C93.1776 985.017 90.25 987.626 90.25 991.212C90.25 994.473 92.8523 997.408 96.4305 997.408C100.009 997.408 102.611 994.799 102.611 991.212C102.286 987.952 99.6834 985.017 96.4305 985.017Z" fill="#969696"/>
<path d="M393.098 1058.06C396.351 1058.06 399.279 1060.66 399.279 1064.25C399.279 1067.51 396.677 1070.45 393.098 1070.45C389.846 1070.45 386.918 1067.84 386.918 1064.25C387.243 1060.66 389.846 1058.06 393.098 1058.06Z" fill="#969696"/>
<path d="M344.304 789.051H35.2752V790.682H343.654L460.759 908.392L461.735 907.087L344.304 789.051Z" fill="#969696"/>
<path d="M35.6006 783.834C32.3476 783.834 29.42 786.442 29.42 790.029C29.42 793.29 32.0224 796.224 35.6006 796.224C38.8536 796.224 41.7812 793.616 41.7812 790.029C41.4559 786.442 38.8536 783.834 35.6006 783.834Z" fill="#969696"/>
<path d="M465.314 903.174C467.591 905.457 467.591 909.369 465.314 911.978C463.036 914.26 459.133 914.26 456.531 911.978C454.254 909.696 454.254 905.783 456.531 903.174C459.133 900.566 463.036 900.566 465.314 903.174Z" fill="#969696"/>
<path d="M-23.9282 710.469L-47.024 733.946V731.663L-24.5788 708.839H425.303V710.469H-23.9282Z" fill="#969696"/>
<path d="M424.977 716.012C421.564 716.012 418.797 713.238 418.797 709.817C418.797 706.395 421.564 703.621 424.977 703.621C428.391 703.621 431.158 706.395 431.158 709.817C431.158 713.238 428.391 716.012 424.977 716.012Z" fill="#969696"/>
<path d="M-20.6753 671.34L-47.0241 697.752V695.143L-21.6512 669.71H449.049V671.34H-20.6753Z" fill="#969696"/>
<path d="M448.724 676.558C445.31 676.558 442.543 673.784 442.543 670.362C442.543 666.941 445.31 664.167 448.724 664.167C452.137 664.167 454.904 666.941 454.904 670.362C454.904 673.784 452.137 676.558 448.724 676.558Z" fill="#969696"/>
<path d="M95.7798 393.532H-47.0241V391.901H95.1293L221.669 265.062L222.644 266.04L95.7798 393.532Z" fill="#969696"/>
<path d="M221.994 271.909C218.58 271.909 215.813 269.135 215.813 265.714C215.813 262.292 218.58 259.519 221.994 259.519C225.407 259.519 228.174 262.292 228.174 265.714C228.174 269.135 225.407 271.909 221.994 271.909Z" fill="#969696"/>
<path d="M458.808 311.689H233.054L151.08 393.858L152.381 394.836L233.704 313.32H458.808V311.689Z" fill="#969696"/>
<path d="M147.502 389.946C145.224 392.228 145.224 396.141 147.502 398.749C149.779 401.032 153.682 401.032 156.284 398.749C158.562 396.467 158.562 392.554 156.284 389.946C154.007 387.337 150.104 387.337 147.502 389.946Z" fill="#969696"/>
<path d="M458.808 318.537C455.394 318.537 452.627 315.763 452.627 312.342C452.627 308.92 455.394 306.146 458.808 306.146C462.221 306.146 464.988 308.92 464.988 312.342C464.988 315.763 462.221 318.537 458.808 318.537Z" fill="#969696"/>
</g>
<g filter="url(#filter0_f_117_20278)">
<circle cx="58" cy="350" r="50" fill="#00FFA3"/>
</g>
<g filter="url(#filter1_f_117_20278)">
<circle cx="855" cy="762" r="50" fill="#00FFA3"/>
</g>
<g opacity="0.5" filter="url(#filter2_f_117_20278)">
<circle cx="1861" cy="260" r="50" fill="#00FFA3"/>
</g>
<g filter="url(#filter3_f_117_20278)">
<circle cx="1598" cy="1092" r="50" fill="#00FFA3"/>
</g>
<g filter="url(#filter4_f_117_20278)">
<circle cx="275" cy="1160" r="50" fill="#00FFA3"/>
</g>
<g opacity="0.8">
<g opacity="0.86" filter="url(#filter5_d_117_20278)">
<circle cx="92.1451" cy="272.218" r="5.9" transform="rotate(131 92.1451 272.218)" fill="url(#paint2_linear_117_20278)"/>
</g>
<g opacity="0.79" filter="url(#filter6_d_117_20278)">
<circle cx="474.5" cy="264.217" r="4.2" transform="rotate(25 474.5 264.217)" fill="url(#paint3_linear_117_20278)"/>
</g>
<g opacity="0.77" filter="url(#filter7_d_117_20278)">
<circle cx="1095.07" cy="185.394" r="4.45" transform="rotate(166 1095.07 185.394)" fill="url(#paint4_linear_117_20278)"/>
</g>
<g opacity="0.73" filter="url(#filter8_d_117_20278)">
<circle cx="1380.49" cy="189.407" r="3.25" transform="rotate(-74 1380.49 189.407)" fill="url(#paint5_linear_117_20278)"/>
</g>
<g opacity="0.94" filter="url(#filter9_d_117_20278)">
<circle cx="1715.03" cy="201.393" r="4.6" transform="rotate(88 1715.03 201.393)" fill="url(#paint6_linear_117_20278)"/>
</g>
<g opacity="0.81" filter="url(#filter10_d_117_20278)">
<circle cx="247.947" cy="392.602" r="3.25" transform="rotate(-58 247.947 392.602)" fill="url(#paint7_linear_117_20278)"/>
</g>
<g opacity="0.84" filter="url(#filter11_d_117_20278)">
<circle cx="576.126" cy="435.473" r="4.95" transform="rotate(-63 576.126 435.473)" fill="url(#paint8_linear_117_20278)"/>
</g>
<g opacity="0.76" filter="url(#filter12_d_117_20278)">
<circle cx="1250.29" cy="575.877" r="4.4" transform="rotate(142 1250.29 575.877)" fill="url(#paint9_linear_117_20278)"/>
</g>
<g opacity="0.9" filter="url(#filter13_d_117_20278)">
<circle cx="1168.23" cy="443.444" r="3.75" transform="rotate(172 1168.23 443.444)" fill="url(#paint10_linear_117_20278)"/>
</g>
<g opacity="0.86" filter="url(#filter14_d_117_20278)">
<circle cx="1886.52" cy="391.128" r="5.35" transform="rotate(37 1886.52 391.128)" fill="url(#paint11_linear_117_20278)"/>
</g>
<g opacity="0.73" filter="url(#filter15_d_117_20278)">
<circle cx="86.5067" cy="643.213" r="3.65" transform="rotate(151 86.5067 643.213)" fill="url(#paint12_linear_117_20278)"/>
</g>
<g opacity="0.84" filter="url(#filter16_d_117_20278)">
<circle cx="525.052" cy="797.579" r="5.95" transform="rotate(-102 525.052 797.579)" fill="url(#paint13_linear_117_20278)"/>
</g>
<g opacity="0.81" filter="url(#filter17_d_117_20278)">
<circle cx="860.286" cy="649.579" r="5.45" transform="rotate(-86 860.286 649.579)" fill="url(#paint14_linear_117_20278)"/>
</g>
<g opacity="0.97" filter="url(#filter18_d_117_20278)">
<circle cx="1372.33" cy="728.958" r="4.35" transform="rotate(132 1372.33 728.958)" fill="url(#paint15_linear_117_20278)"/>
</g>
<g opacity="0.99" filter="url(#filter19_d_117_20278)">
<circle cx="1829.87" cy="726.928" r="4.45" transform="rotate(92 1829.87 726.928)" fill="url(#paint16_linear_117_20278)"/>
</g>
<g opacity="0.83" filter="url(#filter20_d_117_20278)">
<circle cx="117.132" cy="812.21" r="4.55" transform="rotate(-138 117.132 812.21)" fill="url(#paint17_linear_117_20278)"/>
</g>
<g opacity="0.84" filter="url(#filter21_d_117_20278)">
<circle cx="427.798" cy="883.401" r="5.25" transform="rotate(-148 427.798 883.401)" fill="url(#paint18_linear_117_20278)"/>
</g>
<g opacity="0.93" filter="url(#filter22_d_117_20278)">
<circle cx="1117.77" cy="910.596" r="5.65" transform="rotate(50 1117.77 910.596)" fill="url(#paint19_linear_117_20278)"/>
</g>
<g opacity="0.97" filter="url(#filter23_d_117_20278)">
<circle cx="1437.38" cy="893.952" r="3.4" transform="rotate(-175 1437.38 893.952)" fill="url(#paint20_linear_117_20278)"/>
</g>
<g opacity="0.79" filter="url(#filter24_d_117_20278)">
<circle cx="1690.25" cy="919.169" r="5.1" transform="rotate(-65 1690.25 919.169)" fill="url(#paint21_linear_117_20278)"/>
</g>
<g opacity="0.72" filter="url(#filter25_d_117_20278)">
<circle cx="31.0317" cy="1160.67" r="4.6" transform="rotate(67 31.0317 1160.67)" fill="url(#paint22_linear_117_20278)"/>
</g>
<g opacity="0.82" filter="url(#filter26_d_117_20278)">
<circle cx="536.214" cy="1241.37" r="5" transform="rotate(93 536.214 1241.37)" fill="url(#paint23_linear_117_20278)"/>
</g>
<g opacity="0.94" filter="url(#filter27_d_117_20278)">
<circle cx="855.651" cy="1217.06" r="5.8" transform="rotate(-49 855.651 1217.06)" fill="url(#paint24_linear_117_20278)"/>
</g>
<g opacity="0.97" filter="url(#filter28_d_117_20278)">
<circle cx="1200.55" cy="1128.23" r="3.25" transform="rotate(44 1200.55 1128.23)" fill="url(#paint25_linear_117_20278)"/>
</g>
<g opacity="0.81" filter="url(#filter29_d_117_20278)">
<circle cx="1741.33" cy="1223.05" r="4.9" transform="rotate(-153 1741.33 1223.05)" fill="url(#paint26_linear_117_20278)"/>
</g>
</g>
<defs>
<filter id="filter0_f_117_20278" x="-292" y="0" width="700" height="700" filterUnits="userSpaceOnUse" color-interpolation-filters="sRGB">
<feFlood flood-opacity="0" result="BackgroundImageFix"/>
<feBlend mode="normal" in="SourceGraphic" in2="BackgroundImageFix" result="shape"/>
<feGaussianBlur stdDeviation="150" result="effect1_foregroundBlur_117_20278"/>
</filter>
<filter id="filter1_f_117_20278" x="505" y="412" width="700" height="700" filterUnits="userSpaceOnUse" color-interpolation-filters="sRGB">
<feFlood flood-opacity="0" result="BackgroundImageFix"/>
<feBlend mode="normal" in="SourceGraphic" in2="BackgroundImageFix" result="shape"/>
<feGaussianBlur stdDeviation="150" result="effect1_foregroundBlur_117_20278"/>
</filter>
<filter id="filter2_f_117_20278" x="1611" y="10" width="500" height="500" filterUnits="userSpaceOnUse" color-interpolation-filters="sRGB">
<feFlood flood-opacity="0" result="BackgroundImageFix"/>
<feBlend mode="normal" in="SourceGraphic" in2="BackgroundImageFix" result="shape"/>
<feGaussianBlur stdDeviation="100" result="effect1_foregroundBlur_117_20278"/>
</filter>
<filter id="filter3_f_117_20278" x="1198" y="692" width="800" height="800" filterUnits="userSpaceOnUse" color-interpolation-filters="sRGB">
<feFlood flood-opacity="0" result="BackgroundImageFix"/>
<feBlend mode="normal" in="SourceGraphic" in2="BackgroundImageFix" result="shape"/>
<feGaussianBlur stdDeviation="175" result="effect1_foregroundBlur_117_20278"/>
</filter>
<filter id="filter4_f_117_20278" x="-125" y="760" width="800" height="800" filterUnits="userSpaceOnUse" color-interpolation-filters="sRGB">
<feFlood flood-opacity="0" result="BackgroundImageFix"/>
<feBlend mode="normal" in="SourceGraphic" in2="BackgroundImageFix" result="shape"/>
<feGaussianBlur stdDeviation="175" result="effect1_foregroundBlur_117_20278"/>
</filter>
<filter id="filter5_d_117_20278" x="82.245" y="264.318" width="19.8002" height="19.8003" filterUnits="userSpaceOnUse" color-interpolation-filters="sRGB">
<feFlood flood-opacity="0" result="BackgroundImageFix"/>
<feColorMatrix in="SourceAlpha" type="matrix" values="0 0 0 0 0 0 0 0 0 0 0 0 0 0 0 0 0 0 127 0" result="hardAlpha"/>
<feOffset dy="2"/>
<feGaussianBlur stdDeviation="2"/>
<feComposite in2="hardAlpha" operator="out"/>
<feColorMatrix type="matrix" values="0 0 0 0 0 0 0 0 0 0.744333 0 0 0 0 0.845833 0 0 0 0.2 0"/>
<feBlend mode="normal" in2="BackgroundImageFix" result="effect1_dropShadow_117_20278"/>
<feBlend mode="normal" in="SourceGraphic" in2="effect1_dropShadow_117_20278" result="shape"/>
</filter>
<filter id="filter6_d_117_20278" x="466.299" y="258.016" width="16.402" height="16.4021" filterUnits="userSpaceOnUse" color-interpolation-filters="sRGB">
<feFlood flood-opacity="0" result="BackgroundImageFix"/>
<feColorMatrix in="SourceAlpha" type="matrix" values="0 0 0 0 0 0 0 0 0 0 0 0 0 0 0 0 0 0 127 0" result="hardAlpha"/>
<feOffset dy="2"/>
<feGaussianBlur stdDeviation="2"/>
<feComposite in2="hardAlpha" operator="out"/>
<feColorMatrix type="matrix" values="0 0 0 0 0 0 0 0 0 0.744333 0 0 0 0 0.845833 0 0 0 0.2 0"/>
<feBlend mode="normal" in2="BackgroundImageFix" result="effect1_dropShadow_117_20278"/>
<feBlend mode="normal" in="SourceGraphic" in2="effect1_dropShadow_117_20278" result="shape"/>
</filter>
<filter id="filter7_d_117_20278" x="1086.62" y="178.943" width="16.9021" height="16.902" filterUnits="userSpaceOnUse" color-interpolation-filters="sRGB">
<feFlood flood-opacity="0" result="BackgroundImageFix"/>
<feColorMatrix in="SourceAlpha" type="matrix" values="0 0 0 0 0 0 0 0 0 0 0 0 0 0 0 0 0 0 127 0" result="hardAlpha"/>
<feOffset dy="2"/>
<feGaussianBlur stdDeviation="2"/>
<feComposite in2="hardAlpha" operator="out"/>
<feColorMatrix type="matrix" values="0 0 0 0 0 0 0 0 0 0.744333 0 0 0 0 0.845833 0 0 0 0.2 0"/>
<feBlend mode="normal" in2="BackgroundImageFix" result="effect1_dropShadow_117_20278"/>
<feBlend mode="normal" in="SourceGraphic" in2="effect1_dropShadow_117_20278" result="shape"/>
</filter>
<filter id="filter8_d_117_20278" x="1373.24" y="184.157" width="14.5016" height="14.5016" filterUnits="userSpaceOnUse" color-interpolation-filters="sRGB">
<feFlood flood-opacity="0" result="BackgroundImageFix"/>
<feColorMatrix in="SourceAlpha" type="matrix" values="0 0 0 0 0 0 0 0 0 0 0 0 0 0 0 0 0 0 127 0" result="hardAlpha"/>
<feOffset dy="2"/>
<feGaussianBlur stdDeviation="2"/>
<feComposite in2="hardAlpha" operator="out"/>
<feColorMatrix type="matrix" values="0 0 0 0 0 0 0 0 0 0.744333 0 0 0 0 0.845833 0 0 0 0.2 0"/>
<feBlend mode="normal" in2="BackgroundImageFix" result="effect1_dropShadow_117_20278"/>
<feBlend mode="normal" in="SourceGraphic" in2="effect1_dropShadow_117_20278" result="shape"/>
</filter>
<filter id="filter9_d_117_20278" x="1706.43" y="194.793" width="17.2002" height="17.2002" filterUnits="userSpaceOnUse" color-interpolation-filters="sRGB">
<feFlood flood-opacity="0" result="BackgroundImageFix"/>
<feColorMatrix in="SourceAlpha" type="matrix" values="0 0 0 0 0 0 0 0 0 0 0 0 0 0 0 0 0 0 127 0" result="hardAlpha"/>
<feOffset dy="2"/>
<feGaussianBlur stdDeviation="2"/>
<feComposite in2="hardAlpha" operator="out"/>
<feColorMatrix type="matrix" values="0 0 0 0 0 0 0 0 0 0.744333 0 0 0 0 0.845833 0 0 0 0.2 0"/>
<feBlend mode="normal" in2="BackgroundImageFix" result="effect1_dropShadow_117_20278"/>
<feBlend mode="normal" in="SourceGraphic" in2="effect1_dropShadow_117_20278" result="shape"/>
</filter>
<filter id="filter10_d_117_20278" x="240.697" y="387.351" width="14.5009" height="14.501" filterUnits="userSpaceOnUse" color-interpolation-filters="sRGB">
<feFlood flood-opacity="0" result="BackgroundImageFix"/>
<feColorMatrix in="SourceAlpha" type="matrix" values="0 0 0 0 0 0 0 0 0 0 0 0 0 0 0 0 0 0 127 0" result="hardAlpha"/>
<feOffset dy="2"/>
<feGaussianBlur stdDeviation="2"/>
<feComposite in2="hardAlpha" operator="out"/>
<feColorMatrix type="matrix" values="0 0 0 0 0 0 0 0 0 0.744333 0 0 0 0 0.845833 0 0 0 0.2 0"/>
<feBlend mode="normal" in2="BackgroundImageFix" result="effect1_dropShadow_117_20278"/>
<feBlend mode="normal" in="SourceGraphic" in2="effect1_dropShadow_117_20278" result="shape"/>
</filter>
<filter id="filter11_d_117_20278" x="567.175" y="428.521" width="17.9021" height="17.9021" filterUnits="userSpaceOnUse" color-interpolation-filters="sRGB">
<feFlood flood-opacity="0" result="BackgroundImageFix"/>
<feColorMatrix in="SourceAlpha" type="matrix" values="0 0 0 0 0 0 0 0 0 0 0 0 0 0 0 0 0 0 127 0" result="hardAlpha"/>
<feOffset dy="2"/>
<feGaussianBlur stdDeviation="2"/>
<feComposite in2="hardAlpha" operator="out"/>
<feColorMatrix type="matrix" values="0 0 0 0 0 0 0 0 0 0.744333 0 0 0 0 0.845833 0 0 0 0.2 0"/>
<feBlend mode="normal" in2="BackgroundImageFix" result="effect1_dropShadow_117_20278"/>
<feBlend mode="normal" in="SourceGraphic" in2="effect1_dropShadow_117_20278" result="shape"/>
</filter>
<filter id="filter12_d_117_20278" x="1241.89" y="569.477" width="16.8004" height="16.8003" filterUnits="userSpaceOnUse" color-interpolation-filters="sRGB">
<feFlood flood-opacity="0" result="BackgroundImageFix"/>
<feColorMatrix in="SourceAlpha" type="matrix" values="0 0 0 0 0 0 0 0 0 0 0 0 0 0 0 0 0 0 127 0" result="hardAlpha"/>
<feOffset dy="2"/>
<feGaussianBlur stdDeviation="2"/>
<feComposite in2="hardAlpha" operator="out"/>
<feColorMatrix type="matrix" values="0 0 0 0 0 0 0 0 0 0.744333 0 0 0 0 0.845833 0 0 0 0.2 0"/>
<feBlend mode="normal" in2="BackgroundImageFix" result="effect1_dropShadow_117_20278"/>
<feBlend mode="normal" in="SourceGraphic" in2="effect1_dropShadow_117_20278" result="shape"/>
</filter>
<filter id="filter13_d_117_20278" x="1160.48" y="437.694" width="15.501" height="15.501" filterUnits="userSpaceOnUse" color-interpolation-filters="sRGB">
<feFlood flood-opacity="0" result="BackgroundImageFix"/>
<feColorMatrix in="SourceAlpha" type="matrix" values="0 0 0 0 0 0 0 0 0 0 0 0 0 0 0 0 0 0 127 0" result="hardAlpha"/>
<feOffset dy="2"/>
<feGaussianBlur stdDeviation="2"/>
<feComposite in2="hardAlpha" operator="out"/>
<feColorMatrix type="matrix" values="0 0 0 0 0 0 0 0 0 0.744333 0 0 0 0 0.845833 0 0 0 0.2 0"/>
<feBlend mode="normal" in2="BackgroundImageFix" result="effect1_dropShadow_117_20278"/>
<feBlend mode="normal" in="SourceGraphic" in2="effect1_dropShadow_117_20278" result="shape"/>
</filter>
<filter id="filter14_d_117_20278" x="1877.17" y="383.778" width="18.7007" height="18.7007" filterUnits="userSpaceOnUse" color-interpolation-filters="sRGB">
<feFlood flood-opacity="0" result="BackgroundImageFix"/>
<feColorMatrix in="SourceAlpha" type="matrix" values="0 0 0 0 0 0 0 0 0 0 0 0 0 0 0 0 0 0 127 0" result="hardAlpha"/>
<feOffset dy="2"/>
<feGaussianBlur stdDeviation="2"/>
<feComposite in2="hardAlpha" operator="out"/>
<feColorMatrix type="matrix" values="0 0 0 0 0 0 0 0 0 0.744333 0 0 0 0 0.845833 0 0 0 0.2 0"/>
<feBlend mode="normal" in2="BackgroundImageFix" result="effect1_dropShadow_117_20278"/>
<feBlend mode="normal" in="SourceGraphic" in2="effect1_dropShadow_117_20278" result="shape"/>
</filter>
<filter id="filter15_d_117_20278" x="78.856" y="637.562" width="15.3013" height="15.3013" filterUnits="userSpaceOnUse" color-interpolation-filters="sRGB">
<feFlood flood-opacity="0" result="BackgroundImageFix"/>
<feColorMatrix in="SourceAlpha" type="matrix" values="0 0 0 0 0 0 0 0 0 0 0 0 0 0 0 0 0 0 127 0" result="hardAlpha"/>
<feOffset dy="2"/>
<feGaussianBlur stdDeviation="2"/>
<feComposite in2="hardAlpha" operator="out"/>
<feColorMatrix type="matrix" values="0 0 0 0 0 0 0 0 0 0.744333 0 0 0 0 0.845833 0 0 0 0.2 0"/>
<feBlend mode="normal" in2="BackgroundImageFix" result="effect1_dropShadow_117_20278"/>
<feBlend mode="normal" in="SourceGraphic" in2="effect1_dropShadow_117_20278" result="shape"/>
</filter>
<filter id="filter16_d_117_20278" x="515.1" y="789.627" width="19.9024" height="19.9026" filterUnits="userSpaceOnUse" color-interpolation-filters="sRGB">
<feFlood flood-opacity="0" result="BackgroundImageFix"/>
<feColorMatrix in="SourceAlpha" type="matrix" values="0 0 0 0 0 0 0 0 0 0 0 0 0 0 0 0 0 0 127 0" result="hardAlpha"/>
<feOffset dy="2"/>
<feGaussianBlur stdDeviation="2"/>
<feComposite in2="hardAlpha" operator="out"/>
<feColorMatrix type="matrix" values="0 0 0 0 0 0 0 0 0 0.744333 0 0 0 0 0.845833 0 0 0 0.2 0"/>
<feBlend mode="normal" in2="BackgroundImageFix" result="effect1_dropShadow_117_20278"/>
<feBlend mode="normal" in="SourceGraphic" in2="effect1_dropShadow_117_20278" result="shape"/>
</filter>
<filter id="filter17_d_117_20278" x="850.835" y="642.129" width="18.9005" height="18.9004" filterUnits="userSpaceOnUse" color-interpolation-filters="sRGB">
<feFlood flood-opacity="0" result="BackgroundImageFix"/>
<feColorMatrix in="SourceAlpha" type="matrix" values="0 0 0 0 0 0 0 0 0 0 0 0 0 0 0 0 0 0 127 0" result="hardAlpha"/>
<feOffset dy="2"/>
<feGaussianBlur stdDeviation="2"/>
<feComposite in2="hardAlpha" operator="out"/>
<feColorMatrix type="matrix" values="0 0 0 0 0 0 0 0 0 0.744333 0 0 0 0 0.845833 0 0 0 0.2 0"/>
<feBlend mode="normal" in2="BackgroundImageFix" result="effect1_dropShadow_117_20278"/>
<feBlend mode="normal" in="SourceGraphic" in2="effect1_dropShadow_117_20278" result="shape"/>
</filter>
<filter id="filter18_d_117_20278" x="1363.98" y="722.608" width="16.7001" height="16.7002" filterUnits="userSpaceOnUse" color-interpolation-filters="sRGB">
<feFlood flood-opacity="0" result="BackgroundImageFix"/>
<feColorMatrix in="SourceAlpha" type="matrix" values="0 0 0 0 0 0 0 0 0 0 0 0 0 0 0 0 0 0 127 0" result="hardAlpha"/>
<feOffset dy="2"/>
<feGaussianBlur stdDeviation="2"/>
<feComposite in2="hardAlpha" operator="out"/>
<feColorMatrix type="matrix" values="0 0 0 0 0 0 0 0 0 0.744333 0 0 0 0 0.845833 0 0 0 0.2 0"/>
<feBlend mode="normal" in2="BackgroundImageFix" result="effect1_dropShadow_117_20278"/>
<feBlend mode="normal" in="SourceGraphic" in2="effect1_dropShadow_117_20278" result="shape"/>
</filter>
<filter id="filter19_d_117_20278" x="1821.42" y="720.478" width="16.9" height="16.8999" filterUnits="userSpaceOnUse" color-interpolation-filters="sRGB">
<feFlood flood-opacity="0" result="BackgroundImageFix"/>
<feColorMatrix in="SourceAlpha" type="matrix" values="0 0 0 0 0 0 0 0 0 0 0 0 0 0 0 0 0 0 127 0" result="hardAlpha"/>
<feOffset dy="2"/>
<feGaussianBlur stdDeviation="2"/>
<feComposite in2="hardAlpha" operator="out"/>
<feColorMatrix type="matrix" values="0 0 0 0 0 0 0 0 0 0.744333 0 0 0 0 0.845833 0 0 0 0.2 0"/>
<feBlend mode="normal" in2="BackgroundImageFix" result="effect1_dropShadow_117_20278"/>
<feBlend mode="normal" in="SourceGraphic" in2="effect1_dropShadow_117_20278" result="shape"/>
</filter>
<filter id="filter20_d_117_20278" x="108.582" y="805.66" width="17.1" height="17.1001" filterUnits="userSpaceOnUse" color-interpolation-filters="sRGB">
<feFlood flood-opacity="0" result="BackgroundImageFix"/>
<feColorMatrix in="SourceAlpha" type="matrix" values="0 0 0 0 0 0 0 0 0 0 0 0 0 0 0 0 0 0 127 0" result="hardAlpha"/>
<feOffset dy="2"/>
<feGaussianBlur stdDeviation="2"/>
<feComposite in2="hardAlpha" operator="out"/>
<feColorMatrix type="matrix" values="0 0 0 0 0 0 0 0 0 0.744333 0 0 0 0 0.845833 0 0 0 0.2 0"/>
<feBlend mode="normal" in2="BackgroundImageFix" result="effect1_dropShadow_117_20278"/>
<feBlend mode="normal" in="SourceGraphic" in2="effect1_dropShadow_117_20278" result="shape"/>
</filter>
<filter id="filter21_d_117_20278" x="418.548" y="876.151" width="18.5014" height="18.5015" filterUnits="userSpaceOnUse" color-interpolation-filters="sRGB">
<feFlood flood-opacity="0" result="BackgroundImageFix"/>
<feColorMatrix in="SourceAlpha" type="matrix" values="0 0 0 0 0 0 0 0 0 0 0 0 0 0 0 0 0 0 127 0" result="hardAlpha"/>
<feOffset dy="2"/>
<feGaussianBlur stdDeviation="2"/>
<feComposite in2="hardAlpha" operator="out"/>
<feColorMatrix type="matrix" values="0 0 0 0 0 0 0 0 0 0.744333 0 0 0 0 0.845833 0 0 0 0.2 0"/>
<feBlend mode="normal" in2="BackgroundImageFix" result="effect1_dropShadow_117_20278"/>
<feBlend mode="normal" in="SourceGraphic" in2="effect1_dropShadow_117_20278" result="shape"/>
</filter>
<filter id="filter22_d_117_20278" x="1108.12" y="902.946" width="19.3003" height="19.3003" filterUnits="userSpaceOnUse" color-interpolation-filters="sRGB">
<feFlood flood-opacity="0" result="BackgroundImageFix"/>
<feColorMatrix in="SourceAlpha" type="matrix" values="0 0 0 0 0 0 0 0 0 0 0 0 0 0 0 0 0 0 127 0" result="hardAlpha"/>
<feOffset dy="2"/>
<feGaussianBlur stdDeviation="2"/>
<feComposite in2="hardAlpha" operator="out"/>
<feColorMatrix type="matrix" values="0 0 0 0 0 0 0 0 0 0.744333 0 0 0 0 0.845833 0 0 0 0.2 0"/>
<feBlend mode="normal" in2="BackgroundImageFix" result="effect1_dropShadow_117_20278"/>
<feBlend mode="normal" in="SourceGraphic" in2="effect1_dropShadow_117_20278" result="shape"/>
</filter>
<filter id="filter23_d_117_20278" x="1429.98" y="888.552" width="14.8004" height="14.8003" filterUnits="userSpaceOnUse" color-interpolation-filters="sRGB">
<feFlood flood-opacity="0" result="BackgroundImageFix"/>
<feColorMatrix in="SourceAlpha" type="matrix" values="0 0 0 0 0 0 0 0 0 0 0 0 0 0 0 0 0 0 127 0" result="hardAlpha"/>
<feOffset dy="2"/>
<feGaussianBlur stdDeviation="2"/>
<feComposite in2="hardAlpha" operator="out"/>
<feColorMatrix type="matrix" values="0 0 0 0 0 0 0 0 0 0.744333 0 0 0 0 0.845833 0 0 0 0.2 0"/>
<feBlend mode="normal" in2="BackgroundImageFix" result="effect1_dropShadow_117_20278"/>
<feBlend mode="normal" in="SourceGraphic" in2="effect1_dropShadow_117_20278" result="shape"/>
</filter>
<filter id="filter24_d_117_20278" x="1681.14" y="912.068" width="18.2025" height="18.2026" filterUnits="userSpaceOnUse" color-interpolation-filters="sRGB">
<feFlood flood-opacity="0" result="BackgroundImageFix"/>
<feColorMatrix in="SourceAlpha" type="matrix" values="0 0 0 0 0 0 0 0 0 0 0 0 0 0 0 0 0 0 127 0" result="hardAlpha"/>
<feOffset dy="2"/>
<feGaussianBlur stdDeviation="2"/>
<feComposite in2="hardAlpha" operator="out"/>
<feColorMatrix type="matrix" values="0 0 0 0 0 0 0 0 0 0.744333 0 0 0 0 0.845833 0 0 0 0.2 0"/>
<feBlend mode="normal" in2="BackgroundImageFix" result="effect1_dropShadow_117_20278"/>
<feBlend mode="normal" in="SourceGraphic" in2="effect1_dropShadow_117_20278" result="shape"/>
</filter>
<filter id="filter25_d_117_20278" x="22.4305" y="1154.07" width="17.2024" height="17.2024" filterUnits="userSpaceOnUse" color-interpolation-filters="sRGB">
<feFlood flood-opacity="0" result="BackgroundImageFix"/>
<feColorMatrix in="SourceAlpha" type="matrix" values="0 0 0 0 0 0 0 0 0 0 0 0 0 0 0 0 0 0 127 0" result="hardAlpha"/>
<feOffset dy="2"/>
<feGaussianBlur stdDeviation="2"/>
<feComposite in2="hardAlpha" operator="out"/>
<feColorMatrix type="matrix" values="0 0 0 0 0 0 0 0 0 0.744333 0 0 0 0 0.845833 0 0 0 0.2 0"/>
<feBlend mode="normal" in2="BackgroundImageFix" result="effect1_dropShadow_117_20278"/>
<feBlend mode="normal" in="SourceGraphic" in2="effect1_dropShadow_117_20278" result="shape"/>
</filter>
<filter id="filter26_d_117_20278" x="527.214" y="1234.37" width="18.0003" height="18.0002" filterUnits="userSpaceOnUse" color-interpolation-filters="sRGB">
<feFlood flood-opacity="0" result="BackgroundImageFix"/>
<feColorMatrix in="SourceAlpha" type="matrix" values="0 0 0 0 0 0 0 0 0 0 0 0 0 0 0 0 0 0 127 0" result="hardAlpha"/>
<feOffset dy="2"/>
<feGaussianBlur stdDeviation="2"/>
<feComposite in2="hardAlpha" operator="out"/>
<feColorMatrix type="matrix" values="0 0 0 0 0 0 0 0 0 0.744333 0 0 0 0 0.845833 0 0 0 0.2 0"/>
<feBlend mode="normal" in2="BackgroundImageFix" result="effect1_dropShadow_117_20278"/>
<feBlend mode="normal" in="SourceGraphic" in2="effect1_dropShadow_117_20278" result="shape"/>
</filter>
<filter id="filter27_d_117_20278" x="845.851" y="1209.26" width="19.6002" height="19.6003" filterUnits="userSpaceOnUse" color-interpolation-filters="sRGB">
<feFlood flood-opacity="0" result="BackgroundImageFix"/>
<feColorMatrix in="SourceAlpha" type="matrix" values="0 0 0 0 0 0 0 0 0 0 0 0 0 0 0 0 0 0 127 0" result="hardAlpha"/>
<feOffset dy="2"/>
<feGaussianBlur stdDeviation="2"/>
<feComposite in2="hardAlpha" operator="out"/>
<feColorMatrix type="matrix" values="0 0 0 0 0 0 0 0 0 0.744333 0 0 0 0 0.845833 0 0 0 0.2 0"/>
<feBlend mode="normal" in2="BackgroundImageFix" result="effect1_dropShadow_117_20278"/>
<feBlend mode="normal" in="SourceGraphic" in2="effect1_dropShadow_117_20278" result="shape"/>
</filter>
<filter id="filter28_d_117_20278" x="1193.3" y="1122.98" width="14.5" height="14.5" filterUnits="userSpaceOnUse" color-interpolation-filters="sRGB">
<feFlood flood-opacity="0" result="BackgroundImageFix"/>
<feColorMatrix in="SourceAlpha" type="matrix" values="0 0 0 0 0 0 0 0 0 0 0 0 0 0 0 0 0 0 127 0" result="hardAlpha"/>
<feOffset dy="2"/>
<feGaussianBlur stdDeviation="2"/>
<feComposite in2="hardAlpha" operator="out"/>
<feColorMatrix type="matrix" values="0 0 0 0 0 0 0 0 0 0.744333 0 0 0 0 0.845833 0 0 0 0.2 0"/>
<feBlend mode="normal" in2="BackgroundImageFix" result="effect1_dropShadow_117_20278"/>
<feBlend mode="normal" in="SourceGraphic" in2="effect1_dropShadow_117_20278" result="shape"/>
</filter>
<filter id="filter29_d_117_20278" x="1732.43" y="1216.14" width="17.8021" height="17.802" filterUnits="userSpaceOnUse" color-interpolation-filters="sRGB">
<feFlood flood-opacity="0" result="BackgroundImageFix"/>
<feColorMatrix in="SourceAlpha" type="matrix" values="0 0 0 0 0 0 0 0 0 0 0 0 0 0 0 0 0 0 127 0" result="hardAlpha"/>
<feOffset dy="2"/>
<feGaussianBlur stdDeviation="2"/>
<feComposite in2="hardAlpha" operator="out"/>
<feColorMatrix type="matrix" values="0 0 0 0 0 0 0 0 0 0.744333 0 0 0 0 0.845833 0 0 0 0.2 0"/>
<feBlend mode="normal" in2="BackgroundImageFix" result="effect1_dropShadow_117_20278"/>
<feBlend mode="normal" in="SourceGraphic" in2="effect1_dropShadow_117_20278" result="shape"/>
</filter>
<radialGradient id="paint0_radial_117_20278" cx="0" cy="0" r="1" gradientUnits="userSpaceOnUse" gradientTransform="translate(2041.38 714.606) rotate(179.483) scale(308.092 393.989)">
<stop offset="0.2129" stop-color="#005E57"/>
<stop offset="0.361" stop-color="#003D38"/>
<stop offset="0.5136" stop-color="#002220"/>
<stop offset="0.6697" stop-color="#000F0E"/>
<stop offset="0.8298" stop-color="#000403"/>
<stop offset="1"/>
</radialGradient>
<radialGradient id="paint1_radial_117_20278" cx="0" cy="0" r="1" gradientUnits="userSpaceOnUse" gradientTransform="translate(-121.384 714.606) rotate(0.516521) scale(308.092 393.989)">
<stop offset="0.2129" stop-color="#005E57"/>
<stop offset="0.361" stop-color="#003D38"/>
<stop offset="0.5136" stop-color="#002220"/>
<stop offset="0.6697" stop-color="#000F0E"/>
<stop offset="0.8298" stop-color="#000403"/>
<stop offset="1"/>
</radialGradient>
<linearGradient id="paint2_linear_117_20278" x1="92.1451" y1="266.318" x2="92.1451" y2="278.118" gradientUnits="userSpaceOnUse">
<stop stop-color="#00D8A4"/>
<stop offset="1" stop-color="#009470"/>
</linearGradient>
<linearGradient id="paint3_linear_117_20278" x1="474.5" y1="260.017" x2="474.5" y2="268.417" gradientUnits="userSpaceOnUse">
<stop stop-color="#00D8A4"/>
<stop offset="1" stop-color="#009470"/>
</linearGradient>
<linearGradient id="paint4_linear_117_20278" x1="1095.07" y1="180.944" x2="1095.07" y2="189.844" gradientUnits="userSpaceOnUse">
<stop stop-color="#00D8A4"/>
<stop offset="1" stop-color="#009470"/>
</linearGradient>
<linearGradient id="paint5_linear_117_20278" x1="1380.49" y1="186.157" x2="1380.49" y2="192.657" gradientUnits="userSpaceOnUse">
<stop stop-color="#00D8A4"/>
<stop offset="1" stop-color="#009470"/>
</linearGradient>
<linearGradient id="paint6_linear_117_20278" x1="1715.03" y1="196.793" x2="1715.03" y2="205.993" gradientUnits="userSpaceOnUse">
<stop stop-color="#00D8A4"/>
<stop offset="1" stop-color="#009470"/>
</linearGradient>
<linearGradient id="paint7_linear_117_20278" x1="247.947" y1="389.352" x2="247.947" y2="395.852" gradientUnits="userSpaceOnUse">
<stop stop-color="#00D8A4"/>
<stop offset="1" stop-color="#009470"/>
</linearGradient>
<linearGradient id="paint8_linear_117_20278" x1="576.126" y1="430.522" x2="576.126" y2="440.422" gradientUnits="userSpaceOnUse">
<stop stop-color="#00D8A4"/>
<stop offset="1" stop-color="#009470"/>
</linearGradient>
<linearGradient id="paint9_linear_117_20278" x1="1250.29" y1="571.477" x2="1250.29" y2="580.277" gradientUnits="userSpaceOnUse">
<stop stop-color="#00D8A4"/>
<stop offset="1" stop-color="#009470"/>
</linearGradient>
<linearGradient id="paint10_linear_117_20278" x1="1168.23" y1="439.694" x2="1168.23" y2="447.194" gradientUnits="userSpaceOnUse">
<stop stop-color="#00D8A4"/>
<stop offset="1" stop-color="#009470"/>
</linearGradient>
<linearGradient id="paint11_linear_117_20278" x1="1886.52" y1="385.778" x2="1886.52" y2="396.478" gradientUnits="userSpaceOnUse">
<stop stop-color="#00D8A4"/>
<stop offset="1" stop-color="#009470"/>
</linearGradient>
<linearGradient id="paint12_linear_117_20278" x1="86.5067" y1="639.563" x2="86.5067" y2="646.863" gradientUnits="userSpaceOnUse">
<stop stop-color="#00D8A4"/>
<stop offset="1" stop-color="#009470"/>
</linearGradient>
<linearGradient id="paint13_linear_117_20278" x1="525.052" y1="791.629" x2="525.052" y2="803.529" gradientUnits="userSpaceOnUse">
<stop stop-color="#00D8A4"/>
<stop offset="1" stop-color="#009470"/>
</linearGradient>
<linearGradient id="paint14_linear_117_20278" x1="860.286" y1="644.129" x2="860.286" y2="655.029" gradientUnits="userSpaceOnUse">
<stop stop-color="#00D8A4"/>
<stop offset="1" stop-color="#009470"/>
</linearGradient>
<linearGradient id="paint15_linear_117_20278" x1="1372.33" y1="724.608" x2="1372.33" y2="733.308" gradientUnits="userSpaceOnUse">
<stop stop-color="#00D8A4"/>
<stop offset="1" stop-color="#009470"/>
</linearGradient>
<linearGradient id="paint16_linear_117_20278" x1="1829.87" y1="722.478" x2="1829.87" y2="731.378" gradientUnits="userSpaceOnUse">
<stop stop-color="#00D8A4"/>
<stop offset="1" stop-color="#009470"/>
</linearGradient>
<linearGradient id="paint17_linear_117_20278" x1="117.132" y1="807.66" x2="117.132" y2="816.76" gradientUnits="userSpaceOnUse">
<stop stop-color="#00D8A4"/>
<stop offset="1" stop-color="#009470"/>
</linearGradient>
<linearGradient id="paint18_linear_117_20278" x1="427.798" y1="878.151" x2="427.798" y2="888.651" gradientUnits="userSpaceOnUse">
<stop stop-color="#00D8A4"/>
<stop offset="1" stop-color="#009470"/>
</linearGradient>
<linearGradient id="paint19_linear_117_20278" x1="1117.77" y1="904.946" x2="1117.77" y2="916.246" gradientUnits="userSpaceOnUse">
<stop stop-color="#00D8A4"/>
<stop offset="1" stop-color="#009470"/>
</linearGradient>
<linearGradient id="paint20_linear_117_20278" x1="1437.38" y1="890.552" x2="1437.38" y2="897.352" gradientUnits="userSpaceOnUse">
<stop stop-color="#00D8A4"/>
<stop offset="1" stop-color="#009470"/>
</linearGradient>
<linearGradient id="paint21_linear_117_20278" x1="1690.25" y1="914.069" x2="1690.25" y2="924.269" gradientUnits="userSpaceOnUse">
<stop stop-color="#00D8A4"/>
<stop offset="1" stop-color="#009470"/>
</linearGradient>
<linearGradient id="paint22_linear_117_20278" x1="31.0317" y1="1156.07" x2="31.0317" y2="1165.27" gradientUnits="userSpaceOnUse">
<stop stop-color="#00D8A4"/>
<stop offset="1" stop-color="#009470"/>
</linearGradient>
<linearGradient id="paint23_linear_117_20278" x1="536.214" y1="1236.37" x2="536.214" y2="1246.37" gradientUnits="userSpaceOnUse">
<stop stop-color="#00D8A4"/>
<stop offset="1" stop-color="#009470"/>
</linearGradient>
<linearGradient id="paint24_linear_117_20278" x1="855.651" y1="1211.26" x2="855.651" y2="1222.86" gradientUnits="userSpaceOnUse">
<stop stop-color="#00D8A4"/>
<stop offset="1" stop-color="#009470"/>
</linearGradient>
<linearGradient id="paint25_linear_117_20278" x1="1200.55" y1="1124.98" x2="1200.55" y2="1131.48" gradientUnits="userSpaceOnUse">
<stop stop-color="#00D8A4"/>
<stop offset="1" stop-color="#009470"/>
</linearGradient>
<linearGradient id="paint26_linear_117_20278" x1="1741.33" y1="1218.15" x2="1741.33" y2="1227.95" gradientUnits="userSpaceOnUse">
<stop stop-color="#00D8A4"/>
<stop offset="1" stop-color="#009470"/>
</linearGradient>
<clipPath id="clip0_117_20278">
<rect width="478" height="1047" fill="white" transform="translate(1442 208)"/>
</clipPath>
<clipPath id="clip1_117_20278">
<rect width="478" height="1047" fill="white" transform="matrix(-1 0 0 1 478 208)"/>
</clipPath>
</defs>
</svg>
