<svg width="35" height="35" viewBox="0 0 35 35" fill="none" xmlns="http://www.w3.org/2000/svg">
<g clip-path="url(#clip0_119_21954)">
<path d="M35 2.5328C35 12.5133 35 22.4867 35 32.4672C34.9864 32.4887 34.9659 32.5031 34.9591 32.5246C34.7339 34.0027 33.5127 35 32.0185 35C22.3372 34.9857 12.6559 34.9928 2.97466 34.9857C2.68129 34.9857 2.37427 34.9641 2.09454 34.8852C0.777778 34.5193 0 33.4071 0 31.9147C0 27.5379 0 23.154 0 18.7772C0 13.5609 0 8.34461 0 3.12833C0 2.418 0.143275 1.75072 0.559454 1.17671C1.18713 0.322878 2.03314 0 3.03606 0C11.9191 0.00717507 20.8021 0.00717503 29.692 0.00717503C30.4903 0.00717503 31.2885 0.0143501 32.0867 0.00717503C32.8099 -4.1163e-08 33.4513 0.222427 34.0107 0.703157C34.5634 1.18389 34.8226 1.83682 35 2.5328ZM14.6823 28.8725C16.2924 28.8725 17.8411 28.8725 19.424 28.8725C19.424 24.8545 19.424 20.8651 19.424 16.8327C20.2154 16.8327 20.9727 16.8327 21.7368 16.8327C22.385 16.8327 22.385 16.8327 22.5351 16.1654C22.7534 15.1896 22.9649 14.221 23.1969 13.2021C21.9279 13.2021 20.693 13.2021 19.3694 13.2021C19.4376 12.3555 19.4717 11.5447 19.5673 10.7483C19.615 10.3465 19.8674 10.0236 20.2427 9.85855C20.8908 9.57872 21.5663 9.49262 22.2417 9.74375C22.6784 9.9016 23.0877 10.1312 23.538 10.3465C23.8177 9.21997 24.1043 8.10066 24.384 6.967C23.8791 6.80914 23.4152 6.67999 22.9649 6.52214C21.2797 5.94096 19.5809 5.98401 17.8889 6.45039C16.5175 6.82349 15.5692 7.72755 15.0575 9.10517C14.7232 10.0092 14.7027 10.9707 14.6959 11.925C14.6959 12.3411 14.6959 12.7501 14.6959 13.195C13.9386 13.195 13.2222 13.195 12.499 13.195C12.499 14.4147 12.499 15.5986 12.499 16.8255C13.2359 16.8255 13.9454 16.8255 14.6891 16.8255C14.6823 20.8651 14.6823 24.8545 14.6823 28.8725Z" fill="url(#paint0_linear_119_21954)"/>
</g>
<defs>
<linearGradient id="paint0_linear_119_21954" x1="17.5" y1="0" x2="17.5" y2="35" gradientUnits="userSpaceOnUse">
<stop stop-color="#00D8A4"/>
<stop offset="1" stop-color="#009470"/>
</linearGradient>
<clipPath id="clip0_119_21954">
<rect width="35" height="35" rx="8" fill="white"/>
</clipPath>
</defs>
</svg>
