<svg width="64" height="66" viewBox="0 0 64 66" fill="none" xmlns="http://www.w3.org/2000/svg">
<g clip-path="url(#clip0_1330_207)">
<path opacity="0.6" d="M64 17.174V24.8C63.9985 28.2616 62.9074 31.635 60.8813 34.4418C58.8553 37.2487 55.9971 39.3465 52.712 40.438L44.975 42.988C42.837 43.7 41.375 45.85 41.375 48.1C41.375 57.212 33.95 64.638 24.837 64.638H20.287C16.125 64.638 12.3 63.063 9.375 60.513C5.925 57.475 3.75 53.05 3.75 48.1V36.387H15V48.099C14.9991 48.7937 15.1352 49.4817 15.4006 50.1237C15.6661 50.7657 16.0555 51.349 16.5468 51.8402C17.038 52.3314 17.6213 52.7209 18.2633 52.9863C18.9053 53.2517 19.5933 53.3879 20.288 53.387H24.838C25.5326 53.3878 26.2205 53.2515 26.8624 52.986C27.5043 52.7205 28.0875 52.3311 28.5786 51.8398C29.0697 51.3486 29.4591 50.7654 29.7244 50.1235C29.9898 49.4815 30.1259 48.7936 30.125 48.099C30.125 41.012 34.663 34.586 41.413 32.337L49.15 29.787C50.1957 29.4355 51.1052 28.7655 51.7509 27.871C52.3965 26.9764 52.7459 25.9022 52.75 24.799V17.174C52.7508 16.4794 52.6145 15.7914 52.3491 15.1496C52.0836 14.5077 51.6941 13.9245 51.2029 13.4334C50.7117 12.9423 50.1284 12.5529 49.4865 12.2875C48.8446 12.0222 48.1566 11.886 47.462 11.887H20.288C19.5934 11.886 18.9054 12.0222 18.2635 12.2875C17.6216 12.5529 17.0383 12.9423 16.5471 13.4334C16.0559 13.9245 15.6664 14.5077 15.4009 15.1496C15.1355 15.7914 14.9992 16.4794 15 17.174V28.887H3.75V17.174C3.75 12.224 5.925 7.79896 9.375 4.76196C12.3 2.21196 16.125 0.636963 20.288 0.636963H47.462C56.575 0.636963 64 8.06196 64 17.174Z" fill="#00FFA3"/>
<path d="M47.462 4.38696H20.288C15.675 4.38696 11.625 6.86196 9.375 10.537C8.175 12.487 7.5 14.737 7.5 17.174V28.887H11.25V17.174C11.25 12.187 15.3 8.13696 20.288 8.13696H47.462C52.45 8.13696 56.5 12.187 56.5 17.174V24.8C56.4972 26.6944 55.898 28.5399 54.7873 30.0746C53.6765 31.6093 52.1107 32.7553 50.312 33.35L42.612 35.863C37.4 37.625 33.875 42.625 33.875 48.1C33.875 53.087 29.825 57.138 24.837 57.138H20.287C15.3 57.138 11.25 53.088 11.25 48.1V36.387H7.5V48.099C7.5 50.537 8.175 52.787 9.375 54.737C11.625 58.412 15.675 60.887 20.288 60.887H24.838C31.888 60.887 37.625 55.149 37.625 48.099C37.625 44.237 40.1 40.662 43.813 39.424L51.513 36.912C56.725 35.149 60.25 30.274 60.25 24.799V17.174C60.25 10.124 54.512 4.38696 47.462 4.38696Z" fill="#00FFA3"/>
<path d="M0 34.512H18.75V38.262H0V34.512Z" fill="#00FFA3"/>
<path d="M0 27.012H18.75V30.762H0V27.012Z" fill="#00FFA3"/>
</g>
<defs>
<clipPath id="clip0_1330_207">
<rect width="64" height="65" fill="white" transform="translate(0 0.5)"/>
</clipPath>
</defs>
</svg>
