<svg width="64" height="64" viewBox="0 0 64 64" fill="none" xmlns="http://www.w3.org/2000/svg">
<g clip-path="url(#clip0_1330_195)">
<path d="M36.855 55.29C45.12 52.155 49.395 43.89 47.685 34.77C56.52 25.935 62.505 13.68 62.79 1.425C62.79 0.57 62.22 0 61.365 0C49.11 0.285 36.855 6.27 28.02 14.82C19.185 13.395 10.635 17.385 7.5 25.65C11.205 24.225 15.48 23.94 19.755 25.08C18.9 26.505 18.045 27.93 17.475 29.355C17.19 29.925 17.19 30.495 17.76 31.065L32.01 45.315C32.295 45.6 32.865 45.6 33.435 45.315C34.86 44.745 36.285 43.89 37.425 43.035C38.565 47.31 38.28 51.585 36.855 55.29ZM45.5 16.48C43.22 14.2 43.22 10.78 45.5 8.5C47.78 6.22 51.2 6.22 53.48 8.5C55.76 10.78 55.76 14.2 53.48 16.48C51.2 18.76 47.78 18.76 45.5 16.48Z" fill="#00FFA3"/>
<path fill-rule="evenodd" clip-rule="evenodd" d="M12.869 33.9541C12.7529 33.838 12.6151 33.7459 12.4634 33.6831C12.3117 33.6202 12.1492 33.5879 11.985 33.5879C11.8208 33.5879 11.6582 33.6202 11.5066 33.6831C11.3549 33.7459 11.2171 33.838 11.101 33.9541L7.565 37.4891C7.44558 37.6044 7.35031 37.7423 7.28476 37.8948C7.2192 38.0473 7.18467 38.2113 7.18319 38.3773C7.1817 38.5432 7.21328 38.7078 7.27608 38.8615C7.33889 39.0151 7.43167 39.1547 7.549 39.2721C7.66633 39.3895 7.80587 39.4824 7.95947 39.5453C8.11308 39.6082 8.27767 39.6398 8.44364 39.6384C8.60962 39.637 8.77365 39.6026 8.92617 39.5371C9.0787 39.4717 9.21665 39.3765 9.332 39.2571L12.869 35.7221C12.9851 35.606 13.0772 35.4682 13.14 35.3166C13.2029 35.1649 13.2352 35.0023 13.2352 34.8381C13.2352 34.6739 13.2029 34.5114 13.14 34.3597C13.0772 34.208 12.9851 34.0702 12.869 33.9541ZM30.546 51.6301C30.4299 51.514 30.2921 51.4219 30.1404 51.3591C29.9887 51.2962 29.8262 51.2639 29.662 51.2639C29.4978 51.2639 29.3352 51.2962 29.1836 51.3591C29.0319 51.4219 28.8941 51.514 28.778 51.6301L25.243 55.1661C25.0085 55.4006 24.8768 55.7186 24.8768 56.0501C24.8768 56.3817 25.0085 56.6997 25.243 56.9341C25.4774 57.1686 25.7954 57.3003 26.127 57.3003C26.4586 57.3003 26.7765 57.1686 27.011 56.9341L30.546 53.3981C30.6621 53.282 30.7542 53.1442 30.817 52.9926C30.8799 52.8409 30.9122 52.6783 30.9122 52.5141C30.9122 52.3499 30.8799 52.1874 30.817 52.0357C30.7542 51.884 30.6621 51.7462 30.546 51.6301ZM19.94 53.4001C20.1758 53.1725 20.4916 53.0466 20.8193 53.0495C21.1471 53.0525 21.4606 53.184 21.6923 53.4158C21.924 53.6477 22.0553 53.9612 22.0581 54.289C22.0608 54.6167 21.9348 54.9324 21.707 55.1681L13.24 63.6341C13.1239 63.7502 12.9861 63.8423 12.8344 63.9051C12.6827 63.968 12.5202 64.0003 12.356 64.0003C12.1918 64.0003 12.0293 63.968 11.8776 63.9051C11.7259 63.8423 11.5881 63.7502 11.472 63.6341C11.3559 63.518 11.2638 63.3802 11.201 63.2285C11.1382 63.0769 11.1058 62.9143 11.1058 62.7501C11.1058 62.5859 11.1382 62.4234 11.201 62.2717C11.2638 62.12 11.3559 61.9822 11.472 61.8661L19.94 53.4001ZM11.708 53.4001C11.5919 53.284 11.4541 53.1919 11.3024 53.1291C11.1507 53.0662 10.9882 53.0339 10.824 53.0339C10.6598 53.0339 10.4972 53.0662 10.3456 53.1291C10.1939 53.1919 10.0561 53.284 9.94 53.4001L1.472 61.8661C1.35591 61.9822 1.26382 62.12 1.201 62.2717C1.13817 62.4234 1.10583 62.5859 1.10583 62.7501C1.10583 62.9143 1.13817 63.0769 1.201 63.2285C1.26382 63.3802 1.35591 63.518 1.472 63.6341C1.58809 63.7502 1.7259 63.8423 1.87758 63.9051C2.02926 63.968 2.19182 64.0003 2.356 64.0003C2.52017 64.0003 2.68274 63.968 2.83441 63.9051C2.98609 63.8423 3.12391 63.7502 3.24 63.6341L11.707 55.1681C11.8231 55.052 11.9152 54.9142 11.978 54.7626C12.0409 54.6109 12.0732 54.4483 12.0732 54.2841C12.0732 54.1199 12.0409 53.9574 11.978 53.8057C11.9152 53.654 11.8231 53.5162 11.707 53.4001H11.708ZM9.332 42.7921C9.44809 42.676 9.5859 42.5839 9.73758 42.5211C9.88926 42.4583 10.0518 42.426 10.216 42.426C10.3802 42.426 10.5427 42.4583 10.6944 42.5211C10.8461 42.5839 10.9839 42.676 11.1 42.7921C11.2161 42.9082 11.3082 43.046 11.371 43.1977C11.4338 43.3494 11.4662 43.5119 11.4662 43.6761C11.4662 43.8403 11.4338 44.0029 11.371 44.1545C11.3082 44.3062 11.2161 44.444 11.1 44.5601L2.634 53.0281C2.51791 53.1442 2.38009 53.2363 2.22841 53.2991C2.07674 53.362 1.91417 53.3943 1.75 53.3943C1.58582 53.3943 1.42326 53.362 1.27158 53.2991C1.1199 53.2363 0.982085 53.1442 0.865997 53.0281C0.749908 52.912 0.657822 52.7742 0.594995 52.6225C0.532169 52.4709 0.499832 52.3083 0.499832 52.1441C0.499832 51.9799 0.532169 51.8174 0.594995 51.6657C0.657822 51.514 0.749908 51.3762 0.865997 51.2601L9.332 42.7921Z" fill="#00FFA3"/>
</g>
<defs>
<clipPath id="clip0_1330_195">
<rect width="63" height="64" fill="white" transform="translate(0.5)"/>
</clipPath>
</defs>
</svg>
