<svg width="56" height="64" viewBox="0 0 56 64" fill="none" xmlns="http://www.w3.org/2000/svg">
<g clip-path="url(#clip0_1330_193)">
<path fill-rule="evenodd" clip-rule="evenodd" d="M29.902 56.846C29.177 57.174 28.534 57.439 28 57.646C27.3589 57.3964 26.7247 57.1297 26.098 56.846C23.791 55.802 20.735 54.161 17.707 51.782C11.725 47.082 6 39.673 6 28V13.761C7.902 13.314 9.406 12.348 10.198 11.839L10.259 11.799C10.755 11.482 11.189 11.191 11.606 10.913C12.456 10.345 13.23 9.827 14.296 9.227C17.038 7.681 21.133 6 28 6C34.866 6 38.96 7.681 41.705 9.227C42.77 9.827 43.545 10.345 44.394 10.913C44.811 11.191 45.245 11.482 45.741 11.8L45.801 11.839C46.594 12.348 48.098 13.314 50 13.761V28C50 39.673 44.276 47.082 38.293 51.782C35.265 54.162 32.209 55.802 29.902 56.846ZM0 28V8H4C5.158 8 6.4 7.172 8.083 6.049C11.632 3.68 17.148 0 28 0C38.852 0 44.368 3.68 47.917 6.049C49.601 7.172 50.842 8 52 8H56V28C56 56 28 64 28 64C28 64 0 56 0 28ZM41.879 17.879L24 35.757L18.542 30.3L14.3 34.542L21.879 42.122L24 44.241L26.121 42.121L46.121 22.121L41.879 17.878V17.879Z" fill="#00FFA3"/>
</g>
<defs>
<clipPath id="clip0_1330_193">
<rect width="56" height="64" fill="white"/>
</clipPath>
</defs>
</svg>
