<svg width="64" height="66" viewBox="0 0 64 66" fill="none" xmlns="http://www.w3.org/2000/svg">
<g clip-path="url(#clip0_1330_204)">
<path d="M42.934 2.52111C52.52 6.26311 60.17 14.0901 62.879 24.0021C64.151 28.6561 64.309 33.4561 63.516 38.0691C63.4207 38.5876 63.3163 39.1043 63.203 39.6191C63.0924 40.107 62.9807 40.5947 62.868 41.0821C62.0255 44.1681 60.7208 47.1087 58.998 49.8041L53.63 36.6961L58.365 36.6771C58.9228 33.0541 58.7401 29.3555 57.828 25.8051C55.647 17.3571 49.153 10.6731 41.014 7.50011L40.456 7.28211C40.2927 7.21856 40.1435 7.12342 40.0169 7.00214C39.8904 6.88086 39.789 6.73582 39.7186 6.57531C39.6482 6.41481 39.6102 6.242 39.6066 6.06677C39.6031 5.89154 39.6341 5.71733 39.698 5.55411L40.67 3.07011C40.7994 2.74062 41.0542 2.47594 41.3786 2.3342C41.703 2.19245 42.0703 2.18523 42.4 2.31411L42.935 2.52211L42.934 2.52111Z" fill="#00FFA3"/>
<path d="M49.722 52.619C49.9987 52.3981 50.3516 52.2959 50.7035 52.3349C51.0554 52.3739 51.3774 52.5509 51.599 52.827L53.268 54.91C53.728 55.486 53.635 56.325 53.059 56.785L52.611 57.142C44.574 63.559 33.961 66.262 24.009 63.648C19.337 62.421 15.094 60.158 11.489 57.165C11.0873 56.8236 10.6916 56.4752 10.302 56.12C9.938 55.786 9.201 55.098 9.201 55.098C6.94641 52.8276 5.04827 50.2292 3.571 47.391L16.971 50.432L15.273 53.406C18.1369 55.7006 21.4354 57.3922 24.97 58.379C33.388 60.718 42.431 58.443 49.254 52.993L49.722 52.619ZM5.676 37.371L5.766 37.963C5.79242 38.1363 5.78442 38.3131 5.74248 38.4833C5.70053 38.6535 5.62544 38.8137 5.52152 38.9549C5.4176 39.096 5.28687 39.2153 5.13682 39.306C4.98676 39.3966 4.82032 39.4567 4.647 39.483L2.007 39.883C1.277 39.994 0.597002 39.493 0.485002 38.766L0.400002 38.2C-1.148 28.04 1.815 17.512 9.06 10.213C12.459 6.78697 16.543 4.24897 20.94 2.62897C21.4373 2.45214 21.9377 2.28411 22.441 2.12497C22.913 1.97697 23.878 1.68297 23.878 1.68297C26.9755 0.868213 30.1783 0.526019 33.378 0.66797L24.04 10.734L22.31 7.77897C18.8892 9.10739 15.7727 11.1143 13.148 13.679C6.911 19.789 4.362 28.746 5.678 37.371H5.676Z" fill="#00FFA3"/>
<path d="M19.1054 43.5096C16.6649 38.5851 18.6174 32.9218 21.546 29.9671C25.2067 26.2737 29.2217 24.6851 31.9181 21.9647C34.3586 19.5024 35.5789 16.4246 35.5789 11.5C38.6295 14.783 43.7797 28.7057 42.9004 35.5072C41.07 49.6653 27.0371 48.4342 21.546 45.9719C22.9696 44.9459 27.6995 43.2659 31.308 38.5851C35.3988 33.2785 35.5713 28.5367 36.1147 26.5235C35.6805 27.7834 33.3766 33.4202 30.0877 36.7383C26.4188 40.44 22.5628 42.0733 19.1054 43.5096Z" fill="#00FFA3"/>
</g>
<defs>
<clipPath id="clip0_1330_204">
<rect width="64" height="65" fill="white" transform="translate(0 0.5)"/>
</clipPath>
</defs>
</svg>
