<svg aria-hidden="true" style="position: absolute; width: 0; height: 0; overflow: hidden;" version="1.1" xmlns="http://www.w3.org/2000/svg" xmlns:xlink="http://www.w3.org/1999/xlink">
<defs>
<symbol id="features-dynamic" viewBox="0 0 30 32">
<path fill="#00ffa3" style="fill: var(--color1, #00ffa3)" opacity="0.2" d="M13.7 4.473l-13.7 13.644h5.082l-3.906 10.351 14.027-13.644h-5.083l3.58-10.35z"></path>
<path fill="#00ffa3" style="fill: var(--color1, #00ffa3)" opacity="0.5" d="M20.751 2.734l-15.568 15.423h5.774l-4.438 11.701 15.94-15.424h-5.776l4.067-11.7z"></path>
<path fill="#00ffa3" style="fill: var(--color1, #00ffa3)" d="M28.113 0.3l-17.747 17.796h6.582l-5.060 13.502 18.172-17.797h-6.584l4.637-13.501z"></path>
</symbol>
<symbol id="features-eco" viewBox="0 0 31 32">
<path fill="#00ffa3" style="fill: var(--color1, #00ffa3)" d="M20.817 1.222c4.648 1.814 8.357 5.609 9.67 10.415 0.617 2.257 0.693 4.584 0.309 6.82-0.046 0.251-0.097 0.502-0.152 0.752-0.054 0.237-0.108 0.473-0.162 0.709-0.409 1.496-1.041 2.922-1.876 4.229l-2.603-6.355 2.296-0.009c0.27-1.757 0.182-3.55-0.26-5.271-1.057-4.096-4.206-7.337-8.152-8.875l-0.271-0.106c-0.079-0.031-0.151-0.077-0.213-0.136s-0.11-0.129-0.145-0.207-0.053-0.162-0.054-0.247c-0.002-0.085 0.013-0.169 0.044-0.249l0.471-1.204c0.063-0.16 0.186-0.288 0.344-0.357s0.335-0.072 0.495-0.010l0.259 0.101-0-0z"></path>
<path fill="#00ffa3" style="fill: var(--color1, #00ffa3)" d="M24.108 25.512c0.134-0.107 0.305-0.157 0.476-0.138s0.327 0.105 0.434 0.239l0.809 1.010c0.223 0.279 0.178 0.686-0.101 0.909l-0.217 0.173c-3.897 3.111-9.042 4.422-13.868 3.154-2.265-0.595-4.322-1.692-6.070-3.143-0.195-0.166-0.387-0.334-0.575-0.507-0.176-0.162-0.534-0.495-0.534-0.495-1.093-1.101-2.013-2.361-2.73-3.737l6.497 1.474-0.823 1.442c1.389 1.113 2.988 1.933 4.702 2.411 4.081 1.134 8.466 0.031 11.774-2.611l0.227-0.181zM2.752 18.119l0.044 0.287c0.013 0.084 0.009 0.17-0.011 0.252s-0.057 0.16-0.107 0.229c-0.050 0.068-0.114 0.126-0.187 0.17s-0.153 0.073-0.237 0.086l-1.28 0.194c-0.354 0.054-0.684-0.189-0.738-0.542l-0.041-0.274c-0.751-4.926 0.686-10.031 4.199-13.569 1.648-1.661 3.628-2.892 5.76-3.677 0.241-0.086 0.484-0.167 0.728-0.244 0.229-0.072 0.697-0.214 0.697-0.214 1.502-0.395 3.055-0.561 4.606-0.492l-4.527 4.88-0.839-1.433c-1.659 0.644-3.17 1.617-4.442 2.861-3.024 2.962-4.26 7.305-3.622 11.487h-0.001z"></path>
<path fill="#00ffa3" style="fill: var(--color1, #00ffa3)" d="M9.263 21.096c-1.183-2.388-0.237-5.133 1.183-6.566 1.775-1.791 3.722-2.561 5.029-3.88 1.183-1.194 1.775-2.686 1.775-5.074 1.479 1.592 3.976 8.342 3.55 11.64-0.887 6.865-7.691 6.268-10.354 5.074 0.69-0.497 2.983-1.312 4.733-3.581 1.983-2.573 2.067-4.872 2.331-5.848-0.211 0.611-1.328 3.344-2.922 4.953-1.779 1.795-3.648 2.587-5.325 3.283z"></path>
</symbol>
<symbol id="features-reverse" viewBox="0 0 32 32">
<path fill="#00ffa3" style="fill: var(--color1, #00ffa3)" d="M21.422 8.495h-13.226v-4.022l-7.264 6.265 7.264 5.764v-3.674h13.226c2.303 0 5.177 1.922 5.177 5.177s-2.873 5.177-5.177 5.177h-15.084v4.333h15.084c5.244 0 9.509-4.265 9.509-9.509s-4.266-9.509-9.51-9.509l0 0.001z"></path>
</symbol>
<symbol id="features-security" viewBox="0 0 28 32">
<path fill="#00ffa3" style="fill: var(--color1, #00ffa3)" d="M14.951 28.423c1.154-0.522 2.681-1.342 4.195-2.532 2.991-2.35 5.854-6.055 5.854-11.891v-7.12c-0.951-0.223-1.703-0.707-2.099-0.961l-0.030-0.019c-0.248-0.159-0.465-0.304-0.674-0.444-0.424-0.284-0.812-0.543-1.345-0.843-1.372-0.773-3.419-1.614-6.852-1.614s-5.481 0.841-6.852 1.614c-0.533 0.3-0.92 0.559-1.345 0.843-0.208 0.139-0.426 0.285-0.673 0.443l-0.030 0.020c-0.396 0.255-1.148 0.737-2.099 0.961v7.119c0 5.837 2.862 9.541 5.854 11.891 1.514 1.189 3.042 2.010 4.195 2.532 0.313 0.142 0.63 0.275 0.951 0.4 0.267-0.104 0.588-0.236 0.951-0.4zM0 14v-10h2c0.579 0 1.2-0.414 2.042-0.976 1.774-1.185 4.532-3.025 9.959-3.025s8.184 1.84 9.959 3.025c0.842 0.562 1.462 0.976 2.041 0.976h2v10c0 14-14 18-14 18s-14-4-14-18zM20.939 8.94l-8.94 8.939-2.729-2.729-2.121 2.121 4.85 4.849 11.061-11.060-2.121-2.121z"></path>
</symbol>
<symbol id="features-speed" viewBox="0 0 32 32">
<path fill="#00ffa3" style="fill: var(--color1, #00ffa3)" d="M18.427 27.645c4.133-1.567 6.27-5.7 5.415-10.26 4.418-4.418 7.41-10.545 7.552-16.672 0-0.427-0.285-0.713-0.712-0.713-6.128 0.142-12.255 3.135-16.672 7.41-4.418-0.713-8.693 1.283-10.26 5.415 1.853-0.713 3.99-0.855 6.127-0.285-0.428 0.713-0.855 1.425-1.14 2.137-0.143 0.285-0.143 0.57 0.143 0.855l7.125 7.125c0.142 0.142 0.427 0.142 0.712 0 0.712-0.285 1.425-0.712 1.995-1.14 0.57 2.137 0.427 4.275-0.285 6.128zM22.75 8.24c-1.14-1.14-1.14-2.85 0-3.99s2.85-1.14 3.99 0c1.14 1.14 1.14 2.85 0 3.99s-2.85 1.14-3.99 0z"></path>
<path fill="#00ffa3" style="fill: var(--color1, #00ffa3)" d="M6.434 16.977c-0.058-0.058-0.127-0.104-0.203-0.136s-0.157-0.048-0.239-0.048-0.163 0.016-0.239 0.048c-0.076 0.031-0.145 0.077-0.203 0.136l-1.768 1.768c-0.060 0.058-0.107 0.127-0.14 0.203s-0.050 0.158-0.051 0.241c-0.001 0.083 0.015 0.165 0.046 0.242s0.078 0.147 0.136 0.205 0.128 0.105 0.205 0.137c0.077 0.031 0.159 0.047 0.242 0.047s0.165-0.018 0.241-0.051c0.076-0.033 0.145-0.080 0.203-0.14l1.769-1.767c0.058-0.058 0.104-0.127 0.136-0.203s0.048-0.157 0.048-0.239-0.016-0.163-0.048-0.239c-0.031-0.076-0.077-0.145-0.136-0.203zM15.273 25.815c-0.058-0.058-0.127-0.104-0.203-0.136s-0.157-0.048-0.239-0.048-0.163 0.016-0.239 0.048c-0.076 0.031-0.145 0.077-0.203 0.136l-1.768 1.768c-0.117 0.117-0.183 0.276-0.183 0.442s0.066 0.325 0.183 0.442c0.117 0.117 0.276 0.183 0.442 0.183s0.325-0.066 0.442-0.183l1.768-1.768c0.058-0.058 0.104-0.127 0.136-0.203s0.048-0.157 0.048-0.239-0.016-0.163-0.048-0.239c-0.031-0.076-0.077-0.145-0.136-0.203zM9.97 26.7c0.118-0.114 0.276-0.177 0.44-0.175s0.321 0.067 0.437 0.183c0.116 0.116 0.181 0.273 0.183 0.437s-0.062 0.322-0.176 0.44l-4.234 4.233c-0.058 0.058-0.127 0.104-0.203 0.136s-0.157 0.048-0.239 0.048-0.163-0.016-0.239-0.048c-0.076-0.031-0.145-0.077-0.203-0.136s-0.104-0.127-0.136-0.203c-0.031-0.076-0.048-0.157-0.048-0.239s0.016-0.163 0.048-0.239c0.031-0.076 0.077-0.145 0.136-0.203l4.234-4.233zM5.854 26.7c-0.058-0.058-0.127-0.104-0.203-0.136s-0.157-0.048-0.239-0.048-0.163 0.016-0.239 0.048c-0.076 0.031-0.145 0.077-0.203 0.136l-4.234 4.233c-0.058 0.058-0.104 0.127-0.135 0.203s-0.048 0.157-0.048 0.239c0 0.082 0.016 0.163 0.048 0.239s0.077 0.145 0.135 0.203 0.127 0.104 0.203 0.136c0.076 0.031 0.157 0.048 0.239 0.048s0.163-0.016 0.239-0.048c0.076-0.031 0.145-0.077 0.203-0.136l4.234-4.233c0.058-0.058 0.104-0.127 0.136-0.203s0.048-0.157 0.048-0.239-0.016-0.163-0.048-0.239c-0.031-0.076-0.077-0.145-0.136-0.203h0zM4.666 21.396c0.058-0.058 0.127-0.104 0.203-0.136s0.157-0.048 0.239-0.048c0.082 0 0.163 0.016 0.239 0.048s0.145 0.077 0.203 0.136c0.058 0.058 0.104 0.127 0.136 0.203s0.048 0.157 0.048 0.239c0 0.082-0.016 0.163-0.048 0.239s-0.077 0.145-0.136 0.203l-4.233 4.234c-0.058 0.058-0.127 0.104-0.203 0.136s-0.157 0.048-0.239 0.048-0.163-0.016-0.239-0.048c-0.076-0.031-0.145-0.077-0.203-0.136s-0.104-0.127-0.136-0.203c-0.031-0.076-0.048-0.157-0.048-0.239s0.016-0.163 0.048-0.239c0.031-0.076 0.077-0.145 0.136-0.203l4.233-4.234z"></path>
</symbol>
<symbol id="features-track" viewBox="0 0 31 32">
<path fill="#00ffa3" style="fill: var(--color1, #00ffa3)" opacity="0.6" d="M31.030 8.327v3.697c-0.001 1.678-0.53 3.314-1.512 4.675s-2.368 2.378-3.961 2.907l-3.751 1.236c-1.037 0.345-1.745 1.388-1.745 2.479 0 4.418-3.6 8.018-8.018 8.018h-2.206c-2.018 0-3.873-0.764-5.291-2-1.673-1.473-2.727-3.618-2.727-6.018v-5.679h5.455v5.679c-0 0.337 0.066 0.67 0.194 0.982s0.318 0.594 0.556 0.832c0.238 0.238 0.521 0.427 0.832 0.556s0.645 0.195 0.982 0.194h2.206c0.337 0 0.67-0.066 0.982-0.194s0.594-0.318 0.832-0.556c0.238-0.238 0.427-0.521 0.556-0.832s0.195-0.645 0.194-0.982c0-3.436 2.2-6.552 5.473-7.642l3.751-1.236c0.507-0.17 0.948-0.495 1.261-0.929s0.482-0.955 0.484-1.489v-3.697c0-0.337-0.066-0.67-0.194-0.982s-0.318-0.594-0.556-0.832-0.521-0.427-0.832-0.556c-0.311-0.129-0.645-0.195-0.982-0.194h-13.175c-0.337-0-0.67 0.066-0.982 0.194s-0.594 0.317-0.832 0.556-0.427 0.521-0.556 0.832c-0.129 0.311-0.195 0.645-0.194 0.982v5.679h-5.455v-5.679c0-2.4 1.055-4.545 2.727-6.018 1.418-1.236 3.273-2 5.291-2h13.175c4.418 0 8.018 3.6 8.018 8.018z"></path>
<path fill="#00ffa3" style="fill: var(--color1, #00ffa3)" d="M23.012 2.127h-13.175c-2.237 0-4.2 1.2-5.291 2.982-0.582 0.945-0.909 2.036-0.909 3.218v5.679h1.818v-5.679c0-2.418 1.964-4.382 4.382-4.382h13.175c2.418 0 4.382 1.964 4.382 4.382v3.697c-0.001 0.918-0.292 1.813-0.83 2.557s-1.298 1.3-2.17 1.588l-3.733 1.218c-2.527 0.854-4.236 3.279-4.236 5.933 0 2.418-1.964 4.382-4.382 4.382h-2.206c-2.418 0-4.382-1.964-4.382-4.382v-5.679h-1.818v5.679c0 1.182 0.327 2.273 0.909 3.218 1.091 1.782 3.055 2.982 5.291 2.982h2.206c3.418 0 6.2-2.782 6.2-6.2 0-1.872 1.2-3.606 3-4.206l3.733-1.218c2.527-0.855 4.236-3.218 4.236-5.873v-3.697c0-3.418-2.782-6.2-6.2-6.2z"></path>
<path fill="#00ffa3" style="fill: var(--color1, #00ffa3)" d="M0 16.733h9.091v1.818h-9.091v-1.818z"></path>
<path fill="#00ffa3" style="fill: var(--color1, #00ffa3)" d="M0 13.097h9.091v1.818h-9.091v-1.818z"></path>
</symbol>
<symbol id="facebook" viewBox="0 0 32 32">
<path d="M32 2.316c0 9.125 0 18.244 0 27.369-0.012 0.020-0.031 0.033-0.037 0.052-0.206 1.351-1.322 2.263-2.689 2.263-8.851-0.013-17.703-0.007-26.554-0.013-0.268 0-0.549-0.020-0.805-0.092-1.204-0.335-1.915-1.351-1.915-2.716 0-4.002 0-8.010 0-12.011 0-4.769 0-9.538 0-14.308 0-0.649 0.131-1.26 0.511-1.784 0.574-0.781 1.347-1.076 2.264-1.076 8.122 0.007 16.243 0.007 24.371 0.007 0.73 0 1.46 0.007 2.189 0 0.661-0.007 1.248 0.197 1.759 0.636 0.505 0.44 0.742 1.036 0.904 1.673zM13.424 26.398c1.472 0 2.888 0 4.335 0 0-3.674 0-7.321 0-11.008 0.724 0 1.416 0 2.115 0 0.593 0 0.593 0 0.73-0.61 0.2-0.892 0.393-1.778 0.605-2.709-1.16 0-2.289 0-3.499 0 0.062-0.774 0.094-1.515 0.181-2.243 0.044-0.367 0.274-0.663 0.617-0.813 0.593-0.256 1.21-0.335 1.828-0.105 0.399 0.144 0.773 0.354 1.185 0.551 0.256-1.030 0.518-2.053 0.773-3.090-0.462-0.144-0.886-0.262-1.297-0.407-1.541-0.531-3.094-0.492-4.641-0.066-1.254 0.341-2.121 1.168-2.589 2.427-0.306 0.827-0.324 1.706-0.331 2.578 0 0.38 0 0.754 0 1.161-0.692 0-1.347 0-2.009 0 0 1.115 0 2.198 0 3.319 0.674 0 1.322 0 2.002 0-0.006 3.693-0.006 7.341-0.006 11.014z"></path>
</symbol>
<symbol id="instagram" viewBox="0 0 32 32">
<path d="M30.063 32c-9.375 0-18.75 0-28.125 0-0.606-0.175-1.169-0.431-1.512-0.988-0.175-0.294-0.287-0.631-0.425-0.95 0-9.375 0-18.75 0-28.125 0.15-0.5 0.319-1.006 0.75-1.313 0.363-0.256 0.788-0.419 1.188-0.625 9.375 0 18.75 0 28.125 0 0.606 0.169 1.169 0.431 1.512 0.988 0.181 0.294 0.287 0.631 0.425 0.95 0 9.375 0 18.75 0 28.125-0.175 0.606-0.431 1.169-0.988 1.512-0.294 0.175-0.631 0.287-0.95 0.425zM16.025 6.763c0 0.037 0 0.075 0 0.112-1.325 0-2.644-0.025-3.969 0.006-1.063 0.025-2.088 0.275-2.987 0.881-1.5 1.012-2.144 2.506-2.181 4.244-0.056 2.662-0.031 5.331-0.006 7.994 0.013 1.044 0.281 2.044 0.875 2.925 1.012 1.5 2.506 2.144 4.244 2.181 2.662 0.056 5.331 0.050 7.994 0 1.475-0.025 2.8-0.513 3.819-1.65 0.9-1.006 1.269-2.219 1.294-3.531 0.050-2.188 0.056-4.375 0.056-6.563 0-0.644-0.050-1.294-0.113-1.931-0.25-2.481-2.025-4.281-4.512-4.487-1.488-0.119-3-0.125-4.513-0.181z"></path>
<path d="M23.563 15.994c-0.038 1.394-0.044 2.794-0.125 4.181-0.113 1.919-1.331 3.2-3.25 3.25-2.775 0.075-5.556 0.075-8.338 0-1.962-0.050-3.219-1.306-3.275-3.281-0.075-2.787-0.050-5.581 0-8.369 0.025-1.206 0.575-2.206 1.694-2.8 0.631-0.331 1.325-0.456 2.025-0.456 2.625 0 5.25-0.031 7.869 0.050 1.944 0.063 3.125 1.319 3.275 3.262 0.019 0.206 0.044 0.413 0.044 0.625 0.006 1.175 0 2.356 0 3.531 0.031 0 0.056 0.006 0.081 0.006zM20.712 15.987c-0.006-2.606-2.106-4.7-4.713-4.7-2.612-0.006-4.725 2.112-4.719 4.725 0.006 2.606 2.106 4.7 4.713 4.706 2.612 0 4.731-2.119 4.719-4.731zM22 11.081c-0.006-0.6-0.494-1.081-1.094-1.088-0.619 0-1.106 0.494-1.1 1.113s0.5 1.094 1.125 1.081c0.6-0.006 1.075-0.5 1.069-1.106z"></path>
<path d="M16 12.938c1.688 0 3.056 1.369 3.063 3.050 0.006 1.7-1.375 3.075-3.075 3.069-1.681-0.006-3.050-1.381-3.050-3.069 0.006-1.675 1.375-3.050 3.063-3.050z"></path>
</symbol>
<symbol id="twitter" viewBox="0 0 32 32">
<path d="M0 30.063c0-9.375 0-18.75 0-28.125 0.15-0.5 0.319-1.006 0.75-1.313 0.363-0.256 0.788-0.419 1.188-0.625 9.375 0 18.75 0 28.125 0 0.606 0.169 1.169 0.431 1.512 0.988 0.181 0.294 0.287 0.631 0.425 0.95 0 9.375 0 18.75 0 28.125-0.175 0.606-0.431 1.169-0.988 1.512-0.294 0.181-0.631 0.287-0.95 0.425-9.375 0-18.75 0-28.125 0-0.606-0.175-1.169-0.431-1.512-0.988-0.175-0.294-0.287-0.631-0.425-0.95zM12.65 20.244c-1.612 1.206-3.356 1.681-5.369 1.519 0.169 0.106 0.256 0.169 0.35 0.225 2.381 1.363 4.931 1.719 7.6 1.156 5.087-1.075 8.006-5.7 8.069-10.031 0.006-0.456 0.106-0.762 0.488-1.038 0.512-0.375 0.925-0.875 1.306-1.456-0.369 0.119-0.669 0.231-0.975 0.319-0.306 0.081-0.625 0.137-0.938 0.206 0.656-0.537 1.156-1.15 1.412-1.906-0.656 0.238-1.312 0.469-1.962 0.706-0.219 0.081-0.369 0.025-0.55-0.131-1.094-0.962-2.363-1.219-3.725-0.719-1.375 0.506-2.175 1.537-2.362 2.994-0.056 0.413-0.006 0.838-0.006 1.275-3.031-0.219-5.525-1.5-7.506-3.825-0.487 0.856-0.6 1.731-0.406 2.65 0.2 0.912 0.719 1.625 1.456 2.2-0.019 0.031-0.037 0.056-0.056 0.088-0.5-0.144-1.006-0.287-1.519-0.431 0.019 0.838 0.269 1.587 0.794 2.25 0.519 0.663 1.206 1.081 2.019 1.306-0.006 0.031-0.013 0.056-0.013 0.087-0.488 0-0.981 0-1.519 0 0.612 1.556 1.719 2.387 3.412 2.556z"></path>
</symbol>
<symbol id="youtube" viewBox="0 0 32 32">
<path d="M0 30.063c0-9.375 0-18.75 0-28.125 0.15-0.5 0.319-1.006 0.75-1.313 0.363-0.256 0.788-0.419 1.188-0.625 9.375 0 18.75 0 28.125 0 0.606 0.169 1.169 0.431 1.512 0.988 0.181 0.294 0.287 0.631 0.425 0.95 0 9.375 0 18.75 0 28.125-0.175 0.606-0.431 1.169-0.988 1.512-0.294 0.181-0.631 0.287-0.95 0.425-9.375 0-18.75 0-28.125 0-0.606-0.175-1.169-0.431-1.512-0.988-0.175-0.294-0.287-0.631-0.425-0.95zM15.594 8.925c0 0.025 0 0.050-0.006 0.075-0.112 0-0.231-0.006-0.344 0-2.181 0.1-4.369 0.175-6.55 0.325-1.263 0.088-2.112 0.863-2.325 2.113-0.188 1.081-0.281 2.187-0.338 3.287-0.094 1.981-0.056 3.956 0.344 5.906 0.225 1.113 0.944 1.813 2.069 1.981 1.056 0.156 2.131 0.238 3.2 0.288 3.75 0.162 7.494 0.162 11.238-0.156 1.8-0.156 2.606-0.913 2.85-2.681s0.325-3.55 0.225-5.331c-0.062-1.137-0.169-2.287-0.362-3.406-0.181-1.044-0.894-1.688-1.938-1.925-0.313-0.075-0.637-0.125-0.956-0.137-2.363-0.125-4.731-0.231-7.106-0.338z"></path>
<path d="M14.031 13.012c1.738 1 3.431 1.981 5.181 2.988-1.75 1.006-3.45 1.987-5.181 2.987 0-2 0-3.962 0-5.975z"></path>
</symbol>
<symbol id="burger" viewBox="0 0 32 32">
<path d="M0 2h32v4h-32zM6 8h20v4h-20zM6 20h20v4h-20zM0 14h32v4h-32zM0 26h32v4h-32z"></path>
</symbol>

<symbol id="icon-menu" viewBox="0 0 53 32">
<path fill="#fff" style="fill: var(--color1, #fff)" d="M2.69 0h48.974c0.576 0 1.043 0.467 1.043 1.043v1.843c0 0.576-0.467 1.043-1.043 1.043h-48.974c-0.576 0-1.043-0.467-1.043-1.043v-1.843c0-0.576 0.467-1.043 1.043-1.043z"></path>
<path fill="#fff" style="fill: var(--color1, #fff)" d="M2.69 13.747h48.974c0.576 0 1.043 0.467 1.043 1.043v1.843c0 0.576-0.467 1.043-1.043 1.043h-48.974c-0.576 0-1.043-0.467-1.043-1.043v-1.843c0-0.576 0.467-1.043 1.043-1.043z"></path>
<path fill="#fff" style="fill: var(--color1, #fff)" d="M2.69 27.493h48.974c0.576 0 1.043 0.467 1.043 1.043v1.843c0 0.576-0.467 1.043-1.043 1.043h-48.974c-0.576 0-1.043-0.467-1.043-1.043v-1.843c0-0.576 0.467-1.043 1.043-1.043z"></path>
</symbol>

<symbol id="icon-cross" viewBox="0 0 32 32">
<path d="M31.708 25.708c-0-0-0-0-0-0l-9.708-9.708 9.708-9.708c0-0 0-0 0-0 0.105-0.105 0.18-0.227 0.229-0.357 0.133-0.356 0.057-0.771-0.229-1.057l-4.586-4.586c-0.286-0.286-0.702-0.361-1.057-0.229-0.13 0.048-0.252 0.124-0.357 0.228 0 0-0 0-0 0l-9.708 9.708-9.708-9.708c-0-0-0-0-0-0-0.105-0.104-0.227-0.18-0.357-0.228-0.356-0.133-0.771-0.057-1.057 0.229l-4.586 4.586c-0.286 0.286-0.361 0.702-0.229 1.057 0.049 0.13 0.124 0.252 0.229 0.357 0 0 0 0 0 0l9.708 9.708-9.708 9.708c-0 0-0 0-0 0-0.104 0.105-0.18 0.227-0.229 0.357-0.133 0.355-0.057 0.771 0.229 1.057l4.586 4.586c0.286 0.286 0.702 0.361 1.057 0.229 0.13-0.049 0.252-0.124 0.357-0.229 0-0 0-0 0-0l9.708-9.708 9.708 9.708c0 0 0 0 0 0 0.105 0.105 0.227 0.18 0.357 0.229 0.356 0.133 0.771 0.057 1.057-0.229l4.586-4.586c0.286-0.286 0.362-0.702 0.229-1.057-0.049-0.13-0.124-0.252-0.229-0.357z"></path>
</symbol>

</defs>
</svg>
