<svg aria-hidden="true" style="position: absolute; width: 0; height: 0; overflow: hidden;" version="1.1" xmlns="http://www.w3.org/2000/svg" xmlns:xlink="http://www.w3.org/1999/xlink">
<defs>
<symbol id="icon-burger" viewBox="0 0 53 32">
<path fill="#fff" style="fill: var(--color1, #fff)" d="M2.69 0h48.974c0.576 0 1.043 0.467 1.043 1.043v1.843c0 0.576-0.467 1.043-1.043 1.043h-48.974c-0.576 0-1.043-0.467-1.043-1.043v-1.843c0-0.576 0.467-1.043 1.043-1.043z"></path>
<path fill="#fff" style="fill: var(--color1, #fff)" d="M2.69 13.747h48.974c0.576 0 1.043 0.467 1.043 1.043v1.843c0 0.576-0.467 1.043-1.043 1.043h-48.974c-0.576 0-1.043-0.467-1.043-1.043v-1.843c0-0.576 0.467-1.043 1.043-1.043z"></path>
<path fill="#fff" style="fill: var(--color1, #fff)" d="M2.69 27.493h48.974c0.576 0 1.043 0.467 1.043 1.043v1.843c0 0.576-0.467 1.043-1.043 1.043h-48.974c-0.576 0-1.043-0.467-1.043-1.043v-1.843c0-0.576 0.467-1.043 1.043-1.043z"></path>
</symbol>
<symbol id="icon-cross" viewBox="0 0 32 32">
<path d="M31.708 25.708c-0-0-0-0-0-0l-9.708-9.708 9.708-9.708c0-0 0-0 0-0 0.105-0.105 0.18-0.227 0.229-0.357 0.133-0.356 0.057-0.771-0.229-1.057l-4.586-4.586c-0.286-0.286-0.702-0.361-1.057-0.229-0.13 0.048-0.252 0.124-0.357 0.228 0 0-0 0-0 0l-9.708 9.708-9.708-9.708c-0-0-0-0-0-0-0.105-0.104-0.227-0.18-0.357-0.228-0.356-0.133-0.771-0.057-1.057 0.229l-4.586 4.586c-0.286 0.286-0.361 0.702-0.229 1.057 0.049 0.13 0.124 0.252 0.229 0.357 0 0 0 0 0 0l9.708 9.708-9.708 9.708c-0 0-0 0-0 0-0.104 0.105-0.18 0.227-0.229 0.357-0.133 0.355-0.057 0.771 0.229 1.057l4.586 4.586c0.286 0.286 0.702 0.361 1.057 0.229 0.13-0.049 0.252-0.124 0.357-0.229 0-0 0-0 0-0l9.708-9.708 9.708 9.708c0 0 0 0 0 0 0.105 0.105 0.227 0.18 0.357 0.229 0.356 0.133 0.771 0.057 1.057-0.229l4.586-4.586c0.286-0.286 0.362-0.702 0.229-1.057-0.049-0.13-0.124-0.252-0.229-0.357z"></path>
</symbol>
<symbol id="icon-paragraph-center" viewBox="0 0 32 32">
<path d="M0 2h32v4h-32zM6 8h20v4h-20zM6 20h20v4h-20zM0 14h32v4h-32zM0 26h32v4h-32z"></path>
</symbol>
</defs>
</svg>
