<svg xmlns="http://www.w3.org/2000/svg" aria-hidden="true" style="position:absolute;width:0;height:0;overflow:hidden"><defs><symbol id="icon-client-logo-3" viewBox="0 0 61 32"><path fill="#8e8f99" d="M25.022 23.717c.006 0 .012.001.017.004l.015.008.08.076a.676.676 0 0 1-.221.142l-.005.002a.89.89 0 0 1-.32.051h-.016a.876.876 0 0 1-.291-.05l.006.002a.664.664 0 0 1-.227-.136.607.607 0 0 1-.145-.205l-.002-.004a.686.686 0 0 1-.051-.261v-.017c0-.094.02-.184.057-.265l-.002.004a.626.626 0 0 1 .155-.209.726.726 0 0 1 .236-.135l.005-.002a.958.958 0 0 1 .3-.048h.011-.001a.85.85 0 0 1 .288.044c.08.03.153.071.216.121l-.067.081a.046.046 0 0 1-.017.014.046.046 0 0 1-.023.006h-.004a.066.066 0 0 1-.029-.009l-.036-.021-.05-.027a.573.573 0 0 0-.155-.048h-.003a.748.748 0 0 0-.11-.008h-.011.001-.008a.668.668 0 0 0-.22.037l.005-.001a.508.508 0 0 0-.175.102h.001a.463.463 0 0 0-.113.161.526.526 0 0 0-.041.206v.015a.53.53 0 0 0 .043.211l-.001-.004a.46.46 0 0 0 .275.259l.003.001a.6.6 0 0 0 .207.034.846.846 0 0 0 .123-.007.486.486 0 0 0 .266-.111l-.001.001a.07.07 0 0 1 .038-.014zm2.318-.379a.65.65 0 0 1-.054.267.584.584 0 0 1-.151.207l-.001.001a.713.713 0 0 1-.237.136.985.985 0 0 1-.617-.002l.007.002a.712.712 0 0 1-.237-.137l.001.001a.61.61 0 0 1-.151-.205l-.002-.004a.68.68 0 0 1 .002-.539l-.002.004a.634.634 0 0 1 .153-.21.707.707 0 0 1 .236-.131.978.978 0 0 1 .61 0c.089.031.17.077.237.136a.612.612 0 0 1 .206.459v.017-.001zm-.211 0a.552.552 0 0 0-.038-.215.443.443 0 0 0-.274-.261l-.003-.001a.712.712 0 0 0-.449.002l.005-.001a.477.477 0 0 0-.17.102.423.423 0 0 0-.107.157l-.001.003a.62.62 0 0 0 0 .429.449.449 0 0 0 .278.26c.143.046.3.046.444 0a.463.463 0 0 0 .169-.1.458.458 0 0 0 .108-.16.549.549 0 0 0 .038-.215zm1.794.225.021.048.023-.048c.008-.016.016-.032.026-.047l.513-.796c.01-.014.019-.023.029-.025s.022-.004.034-.004h.16v1.296h-.18v-.993l-.001-.022.001-.023v.001l-.516.808a.065.065 0 0 1-.03.029.089.089 0 0 1-.043.011H28.929a.093.093 0 0 1-.044-.011.076.076 0 0 1-.03-.029l-.531-.813v1.04h-.174v-1.293h.158c.013 0 .025.002.036.005h-.001a.06.06 0 0 1 .028.024l.524.797c.011.015.019.03.027.047zm1.93-.064v.485h-.201V22.69h.447a.994.994 0 0 1 .25.028.518.518 0 0 1 .177.08.326.326 0 0 1 .099.125l.001.002a.382.382 0 0 1 .034.165v.006a.357.357 0 0 1-.145.288l-.001.001a.51.51 0 0 1-.175.085l-.004.001a.89.89 0 0 1-.241.03l-.243-.004zm0-.139h.243a.573.573 0 0 0 .155-.02.337.337 0 0 0 .114-.056l-.001.001a.245.245 0 0 0 .092-.192v-.016a.227.227 0 0 0-.021-.094l.001.001a.253.253 0 0 0-.07-.088.436.436 0 0 0-.238-.071l-.033.001h.001-.243v.533zm2.698.626h-.162a.079.079 0 0 1-.041-.012.09.09 0 0 1-.026-.029l-.136-.313H32.5l-.141.313a.07.07 0 0 1-.025.029.078.078 0 0 1-.043.013h-.16l.602-1.296h.209l.61 1.296zm-.994-.481h.566l-.239-.527a.78.78 0 0 1-.044-.116l-.002-.006-.023.068c-.007.021-.015.039-.022.055l-.237.527zm1.861-.809a.1.1 0 0 1 .03.023l.879.977V22.69h.18v1.296H35.403a.096.096 0 0 1-.038-.008h.001a.128.128 0 0 1-.032-.024l-.877-.976.001.022-.001.023v-.001.963h-.18v-1.296h.106c.012 0 .025.001.036.006zm2.567.775v.515h-.201v-.515l-.555-.78h.185c.014 0 .028.004.039.011.011.008.02.018.027.029l.347.504a.618.618 0 0 1 .06.111l.002.004.026-.056a.5.5 0 0 1 .034-.059l.343-.507a.096.096 0 0 1 .026-.027.068.068 0 0 1 .04-.013h.185l-.556.784zm-8.162-2.956c.087.009.176.017.265.024 1.354-.517 2.5-1.365 3.294-2.436s1.201-2.318 1.169-3.585l-1.492-1.275c.303 1.349.161 2.744-.41 4.029s-1.55 2.407-2.826 3.244z" style="fill:var(--color1, #8e8f99)"/><path fill="#8e8f99" d="m28.29 20.456.04.007c1.364-.833 2.404-1.997 2.985-3.341s.677-2.805.276-4.196l-2.126-1.816c.86 1.493 1.206 3.164.998 4.818s-.961 3.225-2.173 4.528zm7.21-4.441c-.361 1.393-1.239 2.649-2.501 3.582-.344.258-.733.5-1.143.708l-.045.021c1.028-.258 1.974-.715 2.763-1.335s1.401-1.386 1.789-2.24l-.862-.736z" style="fill:var(--color1, #8e8f99)"/><path fill="#8e8f99" d="m35.162 15.81-1.228-1.049c-.024 1.196-.421 2.364-1.152 3.384s-1.768 1.854-3.004 2.416h.006c.275 0 .551-.014.824-.042 1.155-.403 2.175-1.044 2.97-1.865s1.339-1.799 1.584-2.844zm-6.694-5.466-1.464-1.253c-1.309.432-2.435 1.192-3.231 2.18s-1.223 2.159-1.227 3.357c.005 1.325.527 2.611 1.484 3.654s2.293 1.784 3.797 2.105c1.343-1.399 2.13-3.126 2.245-4.932s-.447-3.596-1.604-5.111zm10.077 5.273c-.005-1.572-.739-3.079-2.04-4.19s-3.064-1.738-4.904-1.743h-.016c-.883 0-1.733.145-2.526.412l.056-.016 8.967 7.661a5.042 5.042 0 0 0 .464-2.123z" style="fill:var(--color1, #8e8f99)"/></symbol><symbol id="icon-client-logo-4" viewBox="0 0 61 32"><path fill="#8e8f99" d="M20.392 13.643h-.001c-.867 0-1.571.634-1.571 1.416v.001c0 .782.704 1.416 1.571 1.416h.001c.868 0 1.571-.634 1.571-1.416v-.001c0-.782-.703-1.416-1.571-1.416zm11.594-.453c-.002-1.087-.482-2.127-1.334-2.896s-2.007-1.201-3.212-1.203c-1.205.002-2.36.435-3.213 1.203s-1.332 1.81-1.335 2.896v5.991s9.092-.913 9.093-5.989v-.001zm-16.35 7.957c.002.756.336 1.48.929 2.015s1.396.836 2.235.838c.838-.002 1.641-.303 2.234-.838s.927-1.258.929-2.015v-4.168s-6.327.635-6.327 4.167zm3.164.747a.893.893 0 0 1-.46-.126.768.768 0 0 1-.303-.331l-.002-.005a.667.667 0 0 1-.046-.436l-.001.005a.733.733 0 0 1 .226-.382l.001-.001a.86.86 0 0 1 .419-.204l.005-.001c.16-.029.327-.014.479.043s.281.152.372.275a.696.696 0 0 1-.101.945.862.862 0 0 1-.263.161l-.006.002a.894.894 0 0 1-.317.057h-.001v-.003zm5.785-1.343v1.551h-.32v-1.551h.32zm.618.662v.249h-.705v-.249h.705zm.074-.662v.25h-.779v-.25h.78zm1.46.739v.073a.973.973 0 0 1-.048.317.703.703 0 0 1-.136.241l.001-.001a.59.59 0 0 1-.209.15.653.653 0 0 1-.258.052h-.01a.666.666 0 0 1-.267-.052.598.598 0 0 1-.208-.15v-.001a.697.697 0 0 1-.136-.235l-.001-.005a.977.977 0 0 1-.048-.303v-.015.001-.073c0-.119.016-.224.048-.317a.722.722 0 0 1 .136-.241l-.001.001c.059-.066.128-.116.209-.151s.17-.052.268-.052.187.017.267.052.151.085.209.151a.687.687 0 0 1 .136.24.946.946 0 0 1 .049.317zm-.323.074v-.076a.936.936 0 0 0-.022-.217.468.468 0 0 0-.067-.16l.001.002a.29.29 0 0 0-.105-.095l-.002-.001a.295.295 0 0 0-.137-.033h-.006a.306.306 0 0 0-.144.033.292.292 0 0 0-.105.095l-.001.001a.466.466 0 0 0-.064.155l-.001.003a.924.924 0 0 0-.022.204v.014-.001.076c0 .082.007.154.022.217s.037.115.066.159a.29.29 0 0 0 .251.13.285.285 0 0 0 .249-.129l.001-.001a.514.514 0 0 0 .065-.159.931.931 0 0 0 .022-.204v-.014.001zm1.361.332v-.003a.22.22 0 0 0-.013-.073v.001a.147.147 0 0 0-.044-.062.374.374 0 0 0-.09-.055l-.003-.001a1.134 1.134 0 0 0-.145-.055l-.009-.002a1.762 1.762 0 0 1-.213-.082l.012.005a.888.888 0 0 1-.168-.1l.002.001a.467.467 0 0 1-.112-.131l-.001-.002a.36.36 0 0 1-.041-.168V20.956c0-.063.016-.121.044-.173l-.001.002a.396.396 0 0 1 .119-.136.567.567 0 0 1 .181-.089.843.843 0 0 1 .231-.031c.114 0 .214.021.299.062s.151.098.198.169a.44.44 0 0 1 .071.246h-.317v-.005a.245.245 0 0 0-.029-.115l.001.001a.195.195 0 0 0-.084-.082h-.001a.298.298 0 0 0-.132-.03h-.012.001-.011a.332.332 0 0 0-.13.026l.002-.001a.177.177 0 0 0-.083.067v.001a.165.165 0 0 0-.027.091v.003c0 .026.006.05.019.071a.207.207 0 0 0 .059.059h.001c.026.019.058.036.097.052s.083.032.133.048c.085.025.159.054.223.086s.119.068.162.108a.396.396 0 0 1 .131.307v.015c0 .123-.06.233-.153.301l-.001.001c-.049.037-.109.065-.178.084a.869.869 0 0 1-.458-.001.692.692 0 0 1-.206-.094l.002.002a.484.484 0 0 1-.144-.155l-.001-.002a.457.457 0 0 1-.054-.227h.321c0 .048.007.089.022.123s.036.06.062.08c.028.02.061.036.096.044h.002c.038.009.08.014.125.014h.012a.354.354 0 0 0 .127-.024l-.002.001a.169.169 0 0 0 .107-.157v-.002zm1.23-1.145v1.551h-.319v-1.551h.319zm.478 0v.25h-1.265v-.25h1.265zm1.222 1.302v.249h-.825v-.249h.825zm-.721-1.302v1.551h-.32v-1.551h.32zm.614.632v.243h-.718v-.243h.718zm.106-.632v.25h-.825v-.25h.825zm.188 0h.578c.119 0 .221.018.306.053.086.036.152.088.198.158s.069.155.069.257c0 .083-.014.155-.043.214s-.068.109-.117.147l-.001.001a.618.618 0 0 1-.174.093l-.004.001-.101.053H31.1l-.002-.249h.385a.29.29 0 0 0 .131-.031l-.002.001a.199.199 0 0 0 .083-.082v-.001a.254.254 0 0 0 .029-.118V21.035a.281.281 0 0 0-.028-.123l.001.002a.188.188 0 0 0-.083-.082h-.001a.315.315 0 0 0-.132-.029h-.269v1.301h-.319v-1.551zm.867 1.551-.353-.692.337-.002.358.679v.015h-.342zm1.678-.553h-.395V21.3H33.45c.05 0 .096-.011.138-.031l-.002.001a.2.2 0 0 0 .084-.084l.001-.001a.319.319 0 0 0-.001-.254l.001.002a.214.214 0 0 0-.083-.095l-.001-.001a.272.272 0 0 0-.137-.037h-.012.001-.285v1.301h-.32V20.55h.604c.121 0 .225.022.312.066a.468.468 0 0 1 .269.443c0 .1-.023.187-.069.26s-.113.13-.2.169a.744.744 0 0 1-.313.06zm1.843.304v.249h-.825v-.249h.825zm-.721-1.302v1.551h-.32v-1.551h.32zm.613.632v.243h-.718v-.243h.718zm.107-.632v.25h-.824v-.25h.824zm.902 0v1.551h-.319v-1.551h.319zm.478 0v.25h-1.265v-.25h1.265zm1.222 1.302v.249h-.825v-.249h.825zm-.721-1.302v1.551h-.32v-1.551h.32zm.614.632v.243h-.718v-.243h.718zm.106-.632v.25h-.824v-.25h.824zm.188 0h.579c.119 0 .22.018.306.053s.152.088.198.158.069.155.069.257c0 .083-.014.155-.043.214s-.068.109-.117.147l-.001.001a.618.618 0 0 1-.174.093l-.004.001-.101.053h-.503l-.002-.249h.385a.283.283 0 0 0 .13-.031l-.002.001a.199.199 0 0 0 .083-.082l.001-.001a.254.254 0 0 0 .029-.118V21.035a.281.281 0 0 0-.028-.123l.001.002a.188.188 0 0 0-.083-.082h-.001a.31.31 0 0 0-.131-.029h-.269v1.301h-.32v-1.551zm.867 1.551-.354-.692.338-.002.358.679v.015h-.342zm1.338-.406v-.004a.214.214 0 0 0-.013-.072v.001a.147.147 0 0 0-.044-.062.374.374 0 0 0-.09-.055l-.002-.001a1.134 1.134 0 0 0-.145-.055l-.009-.002a1.682 1.682 0 0 1-.212-.082l.012.005a.888.888 0 0 1-.168-.1l.002.001a.452.452 0 0 1-.112-.131l-.001-.002a.356.356 0 0 1-.04-.168v-.008c0-.065.014-.123.043-.176a.42.42 0 0 1 .118-.136l.001-.001a.567.567 0 0 1 .181-.089.79.79 0 0 1 .223-.031h.008c.114 0 .214.021.299.062s.151.098.198.169a.433.433 0 0 1 .071.246h-.317v-.006a.245.245 0 0 0-.029-.115l.001.001a.195.195 0 0 0-.084-.082h-.001a.298.298 0 0 0-.132-.03h-.012.001-.011a.332.332 0 0 0-.13.026l.002-.001a.188.188 0 0 0-.083.067v.001a.166.166 0 0 0-.028.091v.003c0 .026.006.05.019.071a.207.207 0 0 0 .059.059h.001c.026.019.059.036.097.052s.083.032.133.048c.085.025.159.054.223.086s.119.068.162.108.076.085.098.135a.429.429 0 0 1 .033.172.372.372 0 0 1-.152.316l-.001.001a.528.528 0 0 1-.174.083l-.004.001a.869.869 0 0 1-.458-.001.692.692 0 0 1-.206-.094l.002.002a.473.473 0 0 1-.144-.155l-.001-.002a.452.452 0 0 1-.054-.216v-.012.001h.321c0 .048.007.089.022.123s.036.06.062.08c.028.02.061.036.096.044h.002c.038.009.08.014.125.014h.012a.349.349 0 0 0 .126-.024l-.002.001a.169.169 0 0 0 .107-.156v-.003z" style="fill:var(--color1, #8e8f99)"/></symbol><symbol id="icon-client-logo-5" viewBox="0 0 61 32"><path fill="#8e8f99" d="M21.379 21.954c.089.1.137.224.135.352.004.083-.012.167-.048.244s-.091.145-.16.201a.965.965 0 0 1-.608.162h.003-1.064v-2.23h1.042a.963.963 0 0 1 .581.15l-.004-.002c.068.051.121.115.156.187s.051.151.047.23a.484.484 0 0 1-.121.341.581.581 0 0 1-.313.174l-.004.001a.62.62 0 0 1 .359.191zm-1.248-.337h.445a.452.452 0 0 0 .283-.074.278.278 0 0 0 .076-.097l.001-.002a.237.237 0 0 0 .02-.097l-.001-.023v.001l.001-.019a.26.26 0 0 0-.021-.101l.001.002a.263.263 0 0 0-.074-.099.459.459 0 0 0-.255-.076c-.013 0-.025 0-.038.002h.002-.439v.585zm.772.855a.265.265 0 0 0 .081-.101l.001-.002a.247.247 0 0 0 .024-.107l-.001-.018v.001-.016a.25.25 0 0 0-.026-.112l.001.002a.277.277 0 0 0-.083-.102h-.001a.494.494 0 0 0-.273-.082l-.031.001h.001-.468v.613h.473a.515.515 0 0 0 .299-.077zm2.606.441-.58-.872h-.218v.871h-.498v-2.23h.944l.068-.002c.221 0 .426.072.592.194l-.003-.002c.132.121.212.281.224.45s-.042.337-.154.473a.793.793 0 0 1-.45.227l.617.891h-.542zm-.798-1.176h.408c.283 0 .425-.113.425-.338l.001-.018a.316.316 0 0 0-.024-.119l.001.002a.328.328 0 0 0-.081-.115.475.475 0 0 0-.281-.092l-.042.002h.002-.413l.005.679zm3.523.727h-.994l-.176.449h-.523l.913-2.205h.565l.909 2.205h-.523l-.172-.449zm-.133-.338-.363-.941-.363.941h.726zm3.544.787h-.495l-1.11-1.516v1.516h-.494v-2.23h.494l1.109 1.525v-1.525h.495v2.23zm2.824-.534c-.108.172-.26.307-.441.391l-.006.003a1.589 1.589 0 0 1-.696.14h-.881v-2.23h.881l.041-.001c.237 0 .462.051.665.142l-.01-.004c.189.086.345.222.448.389a1.19 1.19 0 0 1-.003 1.176l.003-.006zm-.566-.054a.77.77 0 0 0 .219-.532.77.77 0 0 0-.219-.532.92.92 0 0 0-.623-.19h.003-.344v1.444h.344a.916.916 0 0 0 .621-.191l-.002.002zM26.544 8.279s6.388 2.171 6.252 5.313v5.314s-6.383-2.172-6.251-5.314l-.003-5.313zm11.943 9.383a9.366 9.366 0 0 1 4.059-1.347v-1.664c-1.679.583-3.102 1.638-4.059 3.01z" style="fill:var(--color1, #8e8f99)"/><path fill="#8e8f99" d="M37.762 18.163c.987-1.79 2.699-3.171 4.783-3.86V9.51s-9.097 3.093-8.905 7.567v7.566s.405-.138 1.043-.398c0-.242 0-.486.029-.731.188-2.077 1.285-4.002 3.049-5.351z" style="fill:var(--color1, #8e8f99)"/><path fill="#8e8f99" d="M36.897 20.973a7.108 7.108 0 0 1 .319-1.549c-1.099 1.165-1.764 2.611-1.903 4.134-.013.144-.02.287-.024.436a25.839 25.839 0 0 0 1.901-.902l-.151.072a7.12 7.12 0 0 1-.139-2.219l-.002.028zm.362.028a6.8 6.8 0 0 0 .12 2.028l-.008-.044c2.485-1.339 5.278-3.407 5.171-5.908v-.218c-1.776.179-3.437.878-4.729 1.989a6.665 6.665 0 0 0-.552 2.126l-.002.027z" style="fill:var(--color1, #8e8f99)"/></symbol><symbol id="icon-client-logo-6" viewBox="0 0 61 32"><path fill="#8e8f99" d="M31.102 15.797a1.066 1.066 0 0 1-.221-.728v.003-1.05c0-.322.073-.567.219-.734s.397-.251.753-.25c.335 0 .572.071.712.214a.87.87 0 0 1 .21.628v.247h-.598v-.25a1.34 1.34 0 0 0-.017-.245.235.235 0 0 0-.085-.145.344.344 0 0 0-.191-.057l-.027.001h.001l-.026-.001a.37.37 0 0 0-.203.061l.001-.001a.285.285 0 0 0-.099.158v.002a1.195 1.195 0 0 0-.024.239v.022-.001 1.275a.647.647 0 0 0 .078.361l-.002-.003a.286.286 0 0 0 .117.086l.002.001a.338.338 0 0 0 .155.02.327.327 0 0 0 .212-.058.26.26 0 0 0 .089-.153v-.002c.014-.084.02-.17.019-.255v-.259h.598v.236l.002.062a.961.961 0 0 1-.21.6l.001-.002c-.137.156-.371.234-.716.234s-.604-.083-.752-.256zm2.489.011c-.151-.164-.227-.402-.227-.717v-1.105c0-.312.076-.548.227-.708s.404-.24.758-.239c.352 0 .603.08.754.239.151.16.228.396.228.708v1.105c0 .312-.077.551-.23.716s-.404.247-.752.247-.605-.083-.758-.245zm1.037-.265a.62.62 0 0 0 .072-.327v-1.353l.001-.035a.596.596 0 0 0-.074-.288l.002.003a.29.29 0 0 0-.12-.088l-.002-.001a.316.316 0 0 0-.159-.018h.002c-.012-.002-.026-.002-.041-.002a.34.34 0 0 0-.12.022l.002-.001a.296.296 0 0 0-.123.088v.001a.585.585 0 0 0-.072.321v1.359a.6.6 0 0 0 .072.327.384.384 0 0 0 .126.081.422.422 0 0 0 .311-.001l-.003.001a.384.384 0 0 0 .126-.081v-.007zm1.422-2.472h.644l.484 2.038.495-2.038h.627l.063 2.942H37.9l-.049-2.044-.478 2.044h-.371l-.495-2.052-.046 2.052h-.468l.058-2.942zm3.035 0h1.003c.577 0 .867.279.867.835 0 .533-.304.8-.912.799h-.342v1.307h-.619l.004-2.942zm.856 1.258a.466.466 0 0 0 .34-.094.476.476 0 0 0 .089-.332l.001-.034a.908.908 0 0 0-.032-.24l.001.006a.231.231 0 0 0-.046-.081.277.277 0 0 0-.077-.059l-.001-.001a.634.634 0 0 0-.243-.048l-.035.001h.002-.24v.879h.24zm1.906-1.258h.665l.682 2.942h-.577l-.135-.678h-.593l-.139.678h-.585l.682-2.942zm.568 1.923-.231-1.235-.232 1.235h.463zm1.33-1.923h.433l.829 1.678v-1.678h.514v2.942h-.412l-.835-1.752v1.752h-.531l.001-2.942zm2.98 1.821-.689-1.816h.581l.421 1.167.395-1.167h.568l-.681 1.816v1.121h-.594v-1.121zM32.057 17.3v.154h-.505v1.195h-.211v-1.195h-.508V17.3h1.224zm1.584 1.349h-.168a.071.071 0 0 1-.041-.013.071.071 0 0 1-.027-.03l-.146-.32h-.701l-.146.32a.084.084 0 0 1-.022.036.075.075 0 0 1-.042.013h-.167l.619-1.349h.216l.626 1.344zm-1.025-.501h.584l-.247-.549a.837.837 0 0 1-.044-.12l-.002-.007-.023.072-.023.057-.245.548zm2.092.368a.659.659 0 0 0 .215-.016.666.666 0 0 0 .094-.026l-.005.002.083-.033v-.303h-.251a.088.088 0 0 1-.016-.002.053.053 0 0 1-.015-.008.024.024 0 0 1-.009-.011.027.027 0 0 1-.003-.012v-.106h.48v.517a.913.913 0 0 1-.255.109l-.007.001a1.172 1.172 0 0 1-.155.028 1.686 1.686 0 0 1-.181.009h-.007a.94.94 0 0 1-.311-.053l.007.002a.763.763 0 0 1-.249-.142l.001.001a.664.664 0 0 1-.158-.21l-.002-.004a.663.663 0 0 1-.057-.271V17.97c0-.099.02-.193.057-.278l-.002.005c.036-.08.09-.153.16-.214s.155-.108.247-.14c.106-.035.219-.051.332-.05.058 0 .115.004.172.012a.874.874 0 0 1 .271.087.805.805 0 0 1 .108.071l-.059.084a.05.05 0 0 1-.02.018.064.064 0 0 1-.028.007.074.074 0 0 1-.039-.011.62.62 0 0 1-.064-.034l.004.002a.522.522 0 0 0-.079-.035l-.004-.001a.749.749 0 0 0-.109-.029l-.005-.001a.978.978 0 0 0-.149-.012h-.016a.745.745 0 0 0-.237.039l.005-.002a.525.525 0 0 0-.182.107.448.448 0 0 0-.115.167.626.626 0 0 0 .001.454l-.001-.004a.484.484 0 0 0 .124.17.54.54 0 0 0 .181.107.722.722 0 0 0 .245.027zm1.973-.021h.676v.154h-.883V17.3h.212l-.005 1.195zm1.38.154h-.212V17.3h.212v1.349zm.787-1.343a.11.11 0 0 1 .032.025l.905 1.017-.001-.024.001-.025v.001-1.005h.184v1.355h-.114a.106.106 0 0 1-.04-.008h.001a.12.12 0 0 1-.033-.025l-.904-1.016v1.049h-.177v-1.349h.11c.012 0 .024.002.035.006zm2.681-.006v.148h-.751v.445h.608v.143h-.608v.46h.751v.148h-.968v-1.346h.968zM19.344 8.967l9.401 2.303v8.071l-9.401-2.302V8.966zm-.603-.688v9.152l10.605 2.599v-9.151l-10.605-2.6z" style="fill:var(--color1, #8e8f99)"/><path fill="#8e8f99" d="m24.425 24.279-10.607-2.601v-9.151l10.607 2.6v9.153zM18.916 8.863l9.278 2.274-3.945 3.406-9.28-2.276 3.947-3.404zm-.175-.584-4.923 4.247 10.607 2.6 4.921-4.247-10.605-2.6zm6.281 15.485 4.324-3.732-4.325-1.061v4.793z" style="fill:var(--color1, #8e8f99)"/></symbol><symbol id="icon-antenn" viewBox="0 0 32 32"><path fill="#2e2f42" d="m30.773 22.098-8.443-8.505.937-4.615c.242.094.499.143.759.145h.032a2.16 2.16 0 1 0-2.029-1.42l-.005-.015-4.96.605L8.973.16A.53.53 0 0 0 8.597 0a.536.536 0 0 0-.373.155L6.711 1.659a.53.53 0 0 0 0 .754l.814.825C6.382 5.3 5.709 7.76 5.709 10.377c0 4.106 1.656 7.825 4.336 10.526l-.001-.001a.506.506 0 0 0 .146.098 2.986 2.986 0 0 0-.052.546v6.188h-6.4A2.669 2.669 0 0 0 1.071 30.4v1.067c0 .295.239.533.534.533h24.534a.535.535 0 0 0 .534-.534v-1.067a2.67 2.67 0 0 0-2.667-2.666h-6.4v-2.742a14.784 14.784 0 0 0 10.166-1.502l-.077.039.819.823a.534.534 0 0 0 .377.16.532.532 0 0 0 .373-.155l1.512-1.505a.535.535 0 0 0 0-.754zM23.28 6.233a1.067 1.067 0 1 1 .752 1.822h-.003a1.066 1.066 0 0 1-.746-1.822h-.002zm-1.256 3.505-.599 2.945-1.175-1.182 1.774-1.764zm-.605-.902-1.92 1.909-1.485-1.493 3.405-.415zM24.004 28.8a1.6 1.6 0 0 1 1.6 1.6v.534H2.138V30.4a1.6 1.6 0 0 1 1.6-1.6h20.267zm-7.466-2.134v1.067h-5.334v-1.067h5.334zM11.204 25.6v-4.053c0-1.294 1.197-2.346 2.666-2.346s2.667 1.053 2.667 2.346V25.6h-5.334zm6.4-1.696v-2.357c0-1.882-1.675-3.413-3.733-3.413h-.059c-1.353 0-2.54.707-3.213 1.771l-.009.016a13.816 13.816 0 0 1-3.811-9.549c0-2.314.567-4.496 1.569-6.414l-.036.077 18.602 18.709c-1.823.947-3.98 1.502-6.266 1.502-1.079 0-2.128-.124-3.136-.357l.093.018zm11.289-.683L7.836 2.041l.755-.752 7.935 7.98c.003 0 .006.007.009.009l13.114 13.191-.757.752z" style="fill:var(--color2, #2e2f42)"/><path fill="#4d5ae5" d="M13.876 20.267h-.007a1.6 1.6 0 0 0-.003 3.2h.007a1.6 1.6 0 0 0 .003-3.2zm.373 1.978a.534.534 0 0 1-.91-.379v-.002a.533.533 0 0 1 .53-.53.535.535 0 0 1 .374.912h.005z" style="fill:var(--color3, #4d5ae5)"/></symbol><symbol id="icon-astronaut" viewBox="0 0 32 32"><path fill="#4d5ae5" d="M31.974 4.524a.535.535 0 0 0-.427-.362h-.003l-1.911-.278-.855-1.731c-.179-.365-.776-.365-.956 0l-.855 1.731-1.91.278a.534.534 0 0 0-.296.909l1.383 1.348-.326 1.903a.534.534 0 0 0 .778.56l-.003.001 1.709-.899 1.709.899a.534.534 0 0 0 .773-.565v.003l-.326-1.903 1.383-1.348a.535.535 0 0 0 .134-.55l.001.004zm-2.463 1.327a.534.534 0 0 0-.153.472l.191 1.114-1-.526a.524.524 0 0 0-.499.001l.003-.001-1 .526.191-1.114a.53.53 0 0 0-.153-.472l-.81-.79 1.119-.162a.533.533 0 0 0 .401-.292l.5-1.013.501 1.013a.535.535 0 0 0 .402.292l1.119.162-.809.79zm-3.377 14.671h-1.067v1.067h1.067v-1.067zm0 2.133h-1.067v1.067h1.067v-1.067z" style="fill:var(--color3, #4d5ae5)"/><path fill="#4d5ae5" d="M27.2 21.589h-1.067v1.067H27.2v-1.067zm-2.133 0H24v1.067h1.067v-1.067zm-2.667 4.8h-1.067v1.067H22.4v-1.067zm0 2.134h-1.067v1.067H22.4v-1.067zm1.067-1.067H22.4v1.067h1.067v-1.067zM21.334 27.456h-1.067v1.067h1.067v-1.067zM16 24.256h-1.066v1.067H16v-1.067zm0 2.133h-1.066v1.067H16v-1.067zm1.067-1.066H16v1.067h1.067v-1.067zm-2.133 0h-1.067v1.067h1.067v-1.067zM5.867 6.122H4.801v1.066h1.066V6.122zm0 2.133H4.801v1.067h1.066V8.256zm1.066-1.066H5.867v1.067h1.066V7.189zm-2.133 0H3.733v1.067H4.8V7.189z" style="fill:var(--color3, #4d5ae5)"/><path fill="#2e2f42" d="M24.715 14.159a1.778 1.778 0 0 0-1.179-.704l-.009-.001a1.764 1.764 0 0 0-1.344.356l.004-.003-1.252.96-1.898 1.417-1.358-.541c2.421-1.086 4.114-3.508 4.114-6.32 0-3.823-3.122-6.933-6.961-6.933S7.87 5.5 7.87 9.323a6.86 6.86 0 0 0 1.12 3.758l-2.769-.024c-.008 0-.015.005-.024.005a.495.495 0 0 0-.159.032l.004-.001c-.013.005-.026.008-.038.014-.006.002-.013.003-.019.007l-3.234 1.597-1.893.911a.429.429 0 0 0-.064.036l.001-.001a1.78 1.78 0 0 0-.593 2.304l-.005-.01c.22.429.595.745 1.056.89a1.772 1.772 0 0 0 1.388-.133l-.009.005 1.388-.738 2.264-1.169 1.357-.008-5.442 5.415-.002.002-1.339 1.333c-.303.299-.49.714-.49 1.173v.005a1.665 1.665 0 0 0 1.666 1.663h.003c.428 0 .855-.162 1.18-.485l1.314-1.308 1.74-1.3.901.897-3.102 3.088c-.303.299-.49.714-.49 1.173v.005a1.669 1.669 0 0 0 1.67 1.664h.003c.459 0 .875-.185 1.177-.485l3.482-3.466.001-.002 1.01-1-.004-.003c.007-.006.015-.009.022-.015l5.166-5.658 3.471.494a.522.522 0 0 0 .266-.035l-.004.001c.017-.006.033-.015.05-.023.019-.009.039-.015.057-.027l3.213-2.134c.012-.008.018-.02.029-.029.012-.01.029-.014.04-.025l1.272-1.192a1.777 1.777 0 0 0 .209-2.366l.003.005zM2.13 17.77a.714.714 0 0 1-.558.052.717.717 0 0 1-.215-1.258l.002-.001 1.314-.632.316.925.133.388-.993.527zm3.498-1.827-1.548.8-.255-.747-.183-.537 2.026-1-.04 1.483zm15.099-6.621a5.79 5.79 0 0 1-.599 2.559l-4.181-1.899a1.86 1.86 0 0 0-.782-1.384l-.006-.004 1.464-4.86c2.378.755 4.105 2.974 4.105 5.587zm-11.789 0c0-3.235 2.644-5.867 5.894-5.867.253 0 .5.022.745.053l-1.432 4.753c-.019 0-.037-.005-.057-.005h-.001a1.872 1.872 0 0 0-1.872 1.866 1.873 1.873 0 0 0 1.872 1.867h.001a1.866 1.866 0 0 0 1.613-.935l.005-.009 3.863 1.755a5.891 5.891 0 0 1-4.736 2.39c-3.25 0-5.895-2.633-5.895-5.867zm5.957.8c0 .441-.362.8-.806.8h-.002a.804.804 0 0 1-.804-.8c0-.441.361-.8.806-.8s.806.359.806.8zM2.465 25.146a.609.609 0 0 1-.855 0 .591.591 0 0 1 0-.844l.962-.959.851.848-.958.955zm3.213 3.734a.606.606 0 0 1-.855.001.591.591 0 0 1 0-.844l.963-.959.851.848-.96.955zm3.483-3.469-.002.001-1.765 1.76-.851-.848 1.763-1.756.002-.001c.04-.04.065-.088.09-.135.007-.014.02-.026.026-.04.017-.041.019-.085.025-.129.004-.024.014-.047.014-.073 0-.035-.012-.07-.02-.105-.007-.032-.007-.065-.018-.096a.511.511 0 0 0-.091-.137c-.01-.012-.014-.027-.025-.038h-.001l-.001-.002-1.607-1.6c-.017-.017-.039-.024-.058-.038a.491.491 0 0 0-.084-.056l-.003-.001a.477.477 0 0 0-.09-.032l-.003-.001a.502.502 0 0 0-.101-.02h-.022a.49.49 0 0 0-.077.006h.003a.59.59 0 0 0-.108.021l.004-.001a.502.502 0 0 0-.096.046l.002-.001c-.02.011-.043.015-.061.029l-1.774 1.324-.901-.897 2.399-2.386 4.36 4.289-.927.919zm6.818-7.017c-.015-.002-.03.004-.045.003l-.026-.001a.562.562 0 0 0-.092.008h.003a.5.5 0 0 0-.187.069l.002-.001a.485.485 0 0 0-.083.062c-.013.011-.028.017-.04.029l-4.699 5.146-4.328-4.257 2.833-2.818a.535.535 0 0 0-.378-.911h-.001l-2.219.013.027-1.607 3.104.027a6.928 6.928 0 0 0 4.978 2.101h.003c.438 0 .864-.045 1.279-.122.04.032.079.064.13.085l2.409.96.152.758.178.885-3.003-.427zm4.041.179-.314-1.558 1.447-1.08.947 1.257-2.08 1.381zm3.754-2.831-.838.785-.931-1.236.831-.637a.73.73 0 0 1 .543-.143.719.719 0 0 1 .396 1.231z" style="fill:var(--color2, #2e2f42)"/><path fill="#2e2f42" d="m13.602 18.544-2.143-2.134a.53.53 0 0 0-.752 0l-2.143 2.134a.533.533 0 0 0 0 .756l2.143 2.133a.53.53 0 0 0 .752 0l2.143-2.133a.532.532 0 0 0 0-.756zm-2.519 1.759-1.386-1.381 1.386-1.381 1.387 1.381-1.387 1.381zm6.081-15.232-.258 1.035c.071.018 1.738.452 1.738 2.149h1.067c0-2.017-1.666-2.966-2.546-3.185zm2.547 4.251h-1.067v1.067h1.067V9.322z" style="fill:var(--color2, #2e2f42)"/></symbol><symbol id="icon-client-logo-1" viewBox="0 0 59 32"><path fill="#8e8f99" d="m21.714 4 4.005 3.815-7.433-.003v18.509h19.429v-7.077l4 3.811V4.001h-20zm15.824 14.795L26.184 7.978h11.354v10.817zm-3.525 4.818H21.36V11.165h.894v11.606h11.759v.843zm-10.13 6.137-.471-.97h-.389l.683 1.283v.748h.353v-.748l.684-1.283h-.388l-.471.97zm1.739-.971h.083l.767 2.031h-.368l-.165-.475h-.786l-.164.475h-.367l.765-2.031h.234zm-.373 1.279h.595l-.297-.862-.297.862zm2.455-.337-.035-.044-.009-.013a1.04 1.04 0 0 1-.119-.193l-.003-.006a.546.546 0 0 1 .022-.474.44.44 0 0 1 .183-.175l.003-.001a.596.596 0 0 1 .28-.063h.014c.092 0 .179.023.255.064l-.003-.001a.439.439 0 0 1 .199.565l.001-.003a.511.511 0 0 1-.097.145 1.082 1.082 0 0 1-.139.123l-.003.002-.141.103.402.474a.796.796 0 0 0 .088-.365v-.015.001h.29c0 .099-.01.192-.029.28a.873.873 0 0 1-.15.338l.002-.002.297.351h-.389l-.118-.139a.786.786 0 0 1-.203.113l-.005.002a.921.921 0 0 1-.308.053h-.008a.779.779 0 0 1-.35-.074.554.554 0 0 1-.227-.201l-.001-.002a.553.553 0 0 1-.08-.288v-.02c0-.076.019-.147.053-.209l-.001.002a.722.722 0 0 1 .141-.177c.055-.05.118-.099.189-.149zm.167.204-.042.03a.512.512 0 0 0-.109.114l-.001.002a.334.334 0 0 0-.018.345l-.001-.002a.295.295 0 0 0 .112.115l.001.001c.05.027.109.042.172.042h.011-.001a.513.513 0 0 0 .228-.053l-.003.001a.596.596 0 0 0 .104-.066l-.001.001-.451-.531zm.08-.371.125-.083a.468.468 0 0 0 .125-.113l.001-.001a.25.25 0 0 0 .038-.133v-.01a.203.203 0 0 0-.202-.196h-.012.001-.006a.207.207 0 0 0-.187.119l-.001.001a.288.288 0 0 0 .01.25l-.001-.002c.021.044.05.09.088.138l.023.03zm3.554.596h-.349a.635.635 0 0 1-.066.228l.002-.004a.317.317 0 0 1-.139.137l-.002.001a.522.522 0 0 1-.22.048h-.022.001-.012a.429.429 0 0 1-.202-.05l.002.001a.403.403 0 0 1-.144-.137l-.001-.002a.677.677 0 0 1-.083-.209l-.001-.004a1.322 1.322 0 0 1-.027-.268v-.011.001-.171c0-.109.01-.204.029-.288a.632.632 0 0 1 .093-.215l-.001.002a.395.395 0 0 1 .146-.13l.002-.001a.457.457 0 0 1 .198-.045h.012-.001c.097 0 .177.017.237.05s.106.08.137.143a.65.65 0 0 1 .061.224h.349a.858.858 0 0 0-.117-.365l.002.004a.648.648 0 0 0-.256-.245l-.003-.002a.849.849 0 0 0-.384-.09h-.027.001c-.127 0-.242.023-.345.067s-.189.109-.261.194a.871.871 0 0 0-.166.296l-.002.006c-.038.118-.057.25-.057.396v.169c0 .146.019.278.056.396s.093.219.165.303a.745.745 0 0 0 .597.26c.163 0 .303-.03.417-.089s.203-.141.266-.245a.793.793 0 0 0 .111-.355zm1.937-.299v-.111c0-.153-.02-.291-.061-.411a.906.906 0 0 0-.172-.313l.001.001a.74.74 0 0 0-.262-.195l-.005-.002a.83.83 0 0 0-.343-.069.83.83 0 0 0-.342.069.746.746 0 0 0-.267.197.946.946 0 0 0-.173.311 1.26 1.26 0 0 0-.062.393v.019-.001.111c0 .154.021.291.062.413.04.12.1.223.176.312l-.001-.001a.776.776 0 0 0 .608.264c.125 0 .24-.023.343-.067a.736.736 0 0 0 .265-.197.899.899 0 0 0 .171-.311c.038-.118.06-.253.06-.394v-.02.001zm-.349-.114v.114c0 .114-.011.214-.034.302a.664.664 0 0 1-.096.224l.002-.002a.413.413 0 0 1-.151.134l-.002.001a.462.462 0 0 1-.199.045h-.019a.453.453 0 0 1-.201-.046l.003.001a.448.448 0 0 1-.155-.134l-.001-.001a.658.658 0 0 1-.097-.217l-.001-.005a1.168 1.168 0 0 1-.034-.286v-.017.001-.114c0-.113.011-.213.034-.3s.054-.16.096-.219a.426.426 0 0 1 .153-.133l.002-.001a.445.445 0 0 1 .199-.046h.008c.077 0 .146.015.208.046s.113.074.154.134a.614.614 0 0 1 .097.219c.023.087.034.187.034.3z" style="fill:var(--color1, #8e8f99)"/></symbol><symbol id="icon-client-logo-2" viewBox="0 0 59 32"><path fill="#8e8f99" d="M28.637 3.391h-.078c-.12-.007-.24-.01-.36-.013h-.26c-.227 0-.458.006-.688.017l-.026-.001-.027.001h.001c-2.206.129-4.255.68-6.106 1.575l.096-.042-.247.119V17.7l.578-.197a22.494 22.494 0 0 1 1.607-.477c1.382-.37 2.973-.592 4.612-.614h.013v1.662c-.218.001-.43.007-.641.019l.033-.001h-.048a18.56 18.56 0 0 0-3.688.575l.129-.029c-1.61.409-3.021.975-4.333 1.7l.093-.047V4.064a16.636 16.636 0 0 1 4.331-1.784l.118-.026c1.256-.338 2.7-.535 4.189-.541h.247c.292.007.577.021.845.041.705.05 1.403.161 2.089.333v1.636a12.316 12.316 0 0 0-1.981-.303l-.042-.002-.042-.003c-.141-.012-.282-.024-.414-.024zm2.879 1.672c.363.028.739.041 1.119.041a17.996 17.996 0 0 0 4.533-.594l-.125.028c1.61-.411 3.02-.977 4.331-1.7l-.094.047v15.937a16.634 16.634 0 0 1-4.331 1.783l-.118.026c-1.257.337-2.7.533-4.189.539h-.107c-1.093 0-2.153-.137-3.166-.394l.089.019V4.754c.246.057.499.109.756.153.422.071.867.123 1.301.155zm8.111.124-.578.194c-.351.129-.887.293-1.431.44l-.177.041c-1.44.385-3.094.61-4.8.616h-.004c-.377 0-.724-.01-1.059-.032l-.461-.03v13.015l.396.034c.367.033.746.049 1.127.049A15.376 15.376 0 0 0 36.53 19l-.107.024a15.79 15.79 0 0 0 3.051-1.104l-.094.041.247-.119V5.186zM20.421 25.835a.85.85 0 0 0-.613-.261l-.032.001h.002-.013a.966.966 0 0 0-.365.072l.006-.002a.837.837 0 0 0-.473.475l-.002.006a.919.919 0 0 0-.066.359v2.168c-.006.153.024.305.085.445.051.111.125.21.217.291a.748.748 0 0 0 .297.154c.106.029.215.045.324.045a.919.919 0 0 0 .899-.912v-.242h-.567V28.64a.481.481 0 0 1-.035.183l.001-.003a.337.337 0 0 1-.082.122.402.402 0 0 1-.237.083.286.286 0 0 1-.265-.116l-.001-.001a.504.504 0 0 1-.076-.269v-.023.001-2.022a.7.7 0 0 1 .07-.324.29.29 0 0 1 .244-.133l.035.002h-.001.011c.099 0 .187.048.242.122l.001.001a.453.453 0 0 1 .094.279v.013-.001.187h.561v-.231c0-.133-.025-.26-.072-.377l.002.007a.894.894 0 0 0-.19-.306zm3.367-.024a.976.976 0 0 0-.982-.178.897.897 0 0 0-.517.475l-.002.006a1.007 1.007 0 0 0-.083.42v2.079a1.01 1.01 0 0 0 .083.426.847.847 0 0 0 .219.291c.087.08.189.143.299.183a.978.978 0 0 0 .984-.184l-.001.001a.893.893 0 0 0 .214-.291c.058-.134.086-.279.083-.426v-2.097a1.01 1.01 0 0 0-.086-.408l.003.006a.951.951 0 0 0-.213-.304zm-.265 2.803.001.032a.374.374 0 0 1-.114.269.416.416 0 0 1-.534-.001h.001a.373.373 0 0 1-.114-.268l.002-.035v.001-2.079l-.001-.032c0-.105.044-.201.114-.268a.416.416 0 0 1 .534.001h-.001c.07.068.114.163.114.268 0 .011 0 .023-.002.034v-.001 2.08zm4.687.929v-3.937h-.545l-.716 2.084h-.01l-.722-2.083h-.539v3.936h.562v-2.394h.01l.55 1.693h.281l.555-1.693h.01v2.394h.562zm3.195-3.661a.779.779 0 0 0-.318-.215 1.215 1.215 0 0 0-.386-.061h-.023.001-.835v3.937h.561v-1.538h.289l.047.001c.168 0 .326-.04.466-.111l-.006.003a.823.823 0 0 0 .306-.297l.002-.004a.94.94 0 0 0 .129-.343c.019-.124.03-.267.03-.412v-.037.002a2.212 2.212 0 0 0-.055-.562.836.836 0 0 0-.207-.362zm-.29 1.2a.5.5 0 0 1-.053.208l.001-.003a.316.316 0 0 1-.143.137l-.002.001a.562.562 0 0 1-.235.05l-.03-.001h.001-.256v-1.338h.289l.027-.001a.53.53 0 0 1 .229.051l-.003-.001a.323.323 0 0 1 .131.143l.001.002c.029.064.047.14.049.219v.262c0 .091.006.186 0 .27h-.006zm2.947-1.476h-.46l-.867 3.937h.561l.165-.846h.765l.165.846h.561l-.889-3.937zm-.518 2.555.276-1.427h.01l.274 1.427h-.561zm4.142-.184h-.01l-.847-2.371h-.539v3.937h.561v-2.367h.011l.857 2.367h.528v-3.936h-.561v2.371zm3.427-2.371-.451 1.566h-.011l-.451-1.566h-.593l.77 2.273v1.663h.561v-1.663l.77-2.273h-.594zm-22.256 5.048h.27v.758h.183v-.759h.269v-.155h-.722v.156zm2.273-.156-.354.914h.195l.075-.208h.365l.078.208h.2l-.363-.914h-.195zm-.029.553.124-.339.124.339H21.1zm2.275.024h.211v.118a.344.344 0 0 1-.217.077h-.013a.231.231 0 0 1-.181-.087.376.376 0 0 1-.068-.218l.001-.021v.001c0-.203.088-.305.263-.305l.02-.001c.09 0 .166.062.187.145v.001l.181-.035c-.039-.178-.167-.269-.387-.269h-.012a.462.462 0 0 0-.308.118.444.444 0 0 0-.132.353v-.002.021c0 .123.044.235.118.322l-.001-.001a.445.445 0 0 0 .319.135l.029-.001h-.001.015a.546.546 0 0 0 .373-.146v-.36h-.396v.154zm2.294-.577h-.185v.914h.64v-.155h-.455v-.759zm1.94 0h-.185v.914h.185v-.914zm1.896.611-.374-.61h-.179v.914h.171v-.597l.367.597h.184v-.914h-.17v.611zm1.715-.099h.455v-.155h-.455v-.2h.49v-.156h-.675v.914h.694v-.155h-.509v-.247zm4.157-.151h-.36v-.36h-.183v.914h.183v-.4h.36v.4h.184v-.914h-.184v.361zm1.725.151h.457v-.155h-.457v-.2h.491v-.156h-.674v.914h.693v-.155h-.509v-.247zm2.339 0c.159-.025.24-.109.24-.254a.211.211 0 0 0-.089-.203h-.001a.506.506 0 0 0-.232-.055l-.037.001h.002-.387v.914h.184v-.382h.051c.036 0 .07.008.101.022l-.002-.001a.195.195 0 0 1 .065.066l.001.001.199.29h.219l-.111-.178a.635.635 0 0 0-.2-.218l-.002-.001zm-.185-.127h-.135v-.229h.145a.461.461 0 0 1 .19.022l-.003-.001c.025.022.04.054.04.089a.12.12 0 0 1-.048.096.496.496 0 0 1-.153.023l-.036-.001h.002zm1.949.127h.455v-.155h-.455v-.2h.491v-.156h-.677v.914h.694v-.155h-.509v-.247z" style="fill:var(--color1, #8e8f99)"/></symbol><symbol id="icon-clock" viewBox="0 0 32 32"><path fill="#2e2f42" d="M31.297 15.301C31.295 6.849 24.442-.002 15.989 0S.686 6.855.688 15.308C.69 22.096 5.11 27.851 11.229 29.853l.108.031a.67.67 0 0 0 .529-.064.642.642 0 0 0 .284-.357l3.865-12.25a1.913 1.913 0 1 0-.851-3.63l.011-.005-5.106-5.107a.637.637 0 1 0-.902.902l5.104 5.109a1.873 1.873 0 0 0 .532 2.306l.004.003-3.683 11.673C3.846 25.783.119 17.71 2.801 10.432 5.482 3.155 13.556-.573 20.833 2.109s11.004 10.755 8.323 18.032c-1.345 3.581-4.004 6.406-7.374 7.938l-.088.036-.398-1.875a.638.638 0 0 0-1.049-.343l.001-.001-3.837 3.425a.639.639 0 0 0 .227 1.084l.005.001 4.899 1.564a.637.637 0 0 0 .818-.743l.001.004-.391-1.839c5.528-2.374 9.329-7.772 9.329-14.057v-.034.002zm-15.305-.637a.638.638 0 0 1 0 1.276.638.638 0 0 1 0-1.276zm2.101 14.863 2.184-1.948.603 2.84-2.787-.892z" style="fill:var(--color2, #2e2f42)"/><path fill="#4d5ae5" d="M15.354 3.185V4.46a.638.638 0 1 0 1.275 0V3.185a.639.639 0 0 0-1.274-.002v.001zM3.876 14.664a.637.637 0 1 0 .001 1.274h1.275a.638.638 0 1 0 0-1.274H3.877zm24.232 1.275a.637.637 0 1 0 0-1.274h-1.275a.639.639 0 0 0-.002 1.274H28.107z" style="fill:var(--color3, #4d5ae5)"/></symbol><symbol id="icon-diagram" viewBox="0 0 32 32"><path fill="#4d5ae5" d="M14.925 14.965h1.066v4.797h-1.066v-4.797zm4.265 2.132h1.066v2.665H19.19v-2.665zm-8.529 1.599h1.066v1.066h-1.066v-1.066zm-3.198-.533h1.066v1.599H7.463v-1.599z" style="fill:var(--color3, #4d5ae5)"/><path fill="#2e2f42" d="M1.599 28.291h25.587a1.6 1.6 0 0 0 1.599-1.599v-2.133a1.6 1.6 0 0 0-1.599-1.599h-.534V9.667l3.028-2.868a1.608 1.608 0 1 0-.742-.753l-.004-.01-2.282 2.163v-1.23a1.6 1.6 0 0 0-1.599-1.599H3.73a1.6 1.6 0 0 0-1.599 1.599V22.961h-.533A1.6 1.6 0 0 0-.001 24.56v2.134a1.6 1.6 0 0 0 1.599 1.599zM30.384 4.837a.533.533 0 0 1 0 1.066.533.533 0 0 1 0-1.066zM3.199 6.969c0-.295.239-.534.533-.534h21.322c.294 0 .533.239.533.534v2.238l-1.066 1.013V8.035a.532.532 0 0 0-.533-.533H4.798a.533.533 0 0 0-.533.533v13.326c0 .295.239.534.533.534h19.19a.534.534 0 0 0 .533-.534v-9.674l1.066-1.01V22.96H3.199V6.969zm4.797 6.93h-.005a1.6 1.6 0 1 0 1.112 2.748l1.853.93a.532.532 0 0 0 .636-.123l3.938-4.431 3.872 2.902a.532.532 0 0 0 .686-.04l3.365-3.188v8.131H5.33V8.568h18.124v2.66L19.682 14.8l-3.905-2.928a.531.531 0 0 0-.717.072v.001l-3.993 4.493-1.493-.746c.011-.064.018-.129.021-.194a1.6 1.6 0 0 0-1.599-1.599zm.533 1.599a.533.533 0 0 1-1.066 0 .533.533 0 0 1 1.066 0zm3.198 8.528h5.331v.533a.533.533 0 0 1-.533.533h-4.264a.533.533 0 0 1-.533-.533v-.533zm-10.661.534c0-.294.239-.533.533-.533h9.062v.533a1.6 1.6 0 0 0 1.599 1.599h4.265a1.6 1.6 0 0 0 1.599-1.599v-.534h9.061c.295 0 .534.238.534.533v2.133a.534.534 0 0 1-.534.533H1.599a.533.533 0 0 1-.533-.533v-2.133z" style="fill:var(--color2, #2e2f42)"/></symbol><symbol id="icon-facebook" viewBox="0 0 32 32"><path fill="#f4f4fd" d="M21.33 5.314h2.92V.226A36.551 36.551 0 0 0 20.125 0h-.138.007C15.782 0 12.9 2.65 12.9 7.52V12H8.25v5.688h4.648V32h5.698V17.69h4.46l.708-5.69h-5.17V8.08c.002-1.644.444-2.768 2.736-2.768z" style="fill:var(--color4, #f4f4fd)"/></symbol><symbol id="icon-linkedin" viewBox="0 0 32 32"><path fill="#f4f4fd" d="M31.992 32H32V20.26c0-5.74-1.236-10.164-7.948-10.164-3.226 0-5.392 1.772-6.276 3.45h-.094v-2.912H11.32V32h6.628V21.42c0-2.784.528-5.476 3.976-5.476 3.4 0 3.45 3.178 3.45 5.656V32h6.62zM.528 10.636h6.634V32H.528V10.636zM3.842 0C1.722 0 .002 1.72.002 3.84s1.72 3.88 3.84 3.88c2.122 0 3.844-1.76 3.844-3.88S5.96 0 3.84 0z" style="fill:var(--color4, #f4f4fd)"/></symbol><symbol id="icon-twitter" viewBox="0 0 32 32"><path fill="#f4f4fd" d="M32 6.078c-1.1.494-2.376.858-3.712 1.029l-.068.007a6.56 6.56 0 0 0 2.873-3.58l.013-.046a12.858 12.858 0 0 1-4.076 1.574l-.084.014A6.56 6.56 0 0 0 15.598 9.56c0 .52.044 1.02.152 1.496A18.554 18.554 0 0 1 2.255 4.228l-.027-.034a6.496 6.496 0 0 0-.895 3.311 6.562 6.562 0 0 0 2.888 5.442l.023.015a6.465 6.465 0 0 1-2.997-.823l.033.017v.072a6.592 6.592 0 0 0 5.213 6.438l.043.008a6.408 6.408 0 0 1-1.669.216h-.054.003a5.842 5.842 0 0 1-1.279-.118l.037.006c.873 2.624 3.273 4.496 6.121 4.57h.009a13.098 13.098 0 0 1-8.12 2.798h-.015.001c-.538 0-1.054-.024-1.57-.09C2.826 27.902 6.287 29 10.004 29h.063-.003c12.072 0 18.672-10 18.672-18.668 0-.29-.01-.57-.024-.848a13.186 13.186 0 0 0 3.258-3.359l.03-.047z" style="fill:var(--color4, #f4f4fd)"/></symbol></defs></svg>